<svg xmlns="http://www.w3.org/2000/svg" xml:space="preserve" style="fill-rule:evenodd;clip-rule:evenodd;stroke-linejoin:round;stroke-miterlimit:2" viewBox="100 200 1000 1000"><path d="M2773.12 2313.63c-.83-23.89-4.06-57.53 17.71-95.01 14.22-24.47 39.54-51.49 86.76-77.26 1.96-11.39 5.97-31.41 13.95-68.91 1.27-5.98 8.71-22.08 22.15-38.45 15.88-19.35 39.69-40.14 56.57-46.57 14.19-5.41 54.25-6.78 73.49-9.99l9.91-.63 8.51 1.31 2.52-5.34 7.2-9.67c11.13-12.35 29.29-22.03 50.84-25.66 23.84-4.01 51.64-.7 72.14 9 5.13 2.43 9.88 5.25 14.16 8.37l13.29 12.35 7.5 10.94 5.42 12.96c2.8 9.42 3.81 21.25.58 34.82 15.95 111.78-51.33 193.73-98.43 254.34-7.84 10.09-14.88 19.4-20.11 28.12-1.36 2.27-2.84 5.45-3.89 7.87l12.53 13.5 7.43 14.8 3.1 13.89-.35 15.54c-2.7 18.28-16.21 49.6-78.6 80.79-11.36 5.68-18.5 15.92-24.51 27.82-9.04 17.88-15.01 39.36-20.88 61.96-14.74 56.72-29.09 118.91-64.53 164.48l-8.56 9.41-10.55 8.05-12.52 5.86-13.47 2.78-14.22-.56-11.82-3.18c-7.7-2.91-17.39-9.99-22.52-13.99-48.22-22.24-70.75-38.11-80.22-45.97-17.75-4.51-29.48-11.76-37.54-19.45l-9.39-11.27-6.43-12.76-3.32-12.67-.96-11.57c-.13-13.27 3.78-29.46 8.5-47.56 5.72-21.96 13.9-50.08-11.36-78.95-20.19-23.08-26.19-43.69-25.99-61.18l1.5-13.73 3.85-12.6c3.98-9.78 10.26-19.26 18.83-28.29 14.52-15.31 38.44-29.84 61.73-47.74" style="fill:#ee486a" transform="translate(-2262.15 -1577.97)"/><path d="M2838.22 2335.03a4.13 4.13 0 0 1 4.38-3.28c12.47.99 19.91 3.44 24.04 6.28 3.76 2.59 5.33 5.65 5.68 8.71.57 4.95-2.64 10.4-6.71 14.48-2.51 2.51-5.22 4.5-6.99 5.54-1.28.75-2.31 1.1-2.87 1.19-14.7 2.56-25.48-8.4-26.07-18.47-.33-5.53 2.05-11.15 8.54-14.45m9.29 5.54c-.32.16-.67.28-1.04.36-4.63.91-7.37 2.9-8.24 5.61-.79 2.43-.05 5.17 1.55 7.51 2.69 3.95 7.9 6.77 14.2 5.81.57-.36 3.68-2.38 5.78-4.48 1.31-1.31 2.55-2.79 3.42-4.36.6-1.1 1.05-2.23.93-3.34-.17-1.48-1.47-2.63-3.8-3.79-2.88-1.42-7.03-2.55-12.8-3.32" style="fill:#0f1a20" transform="translate(-2264.91 -1609.05)"/><path d="M2981.84 2324.36c.24-.13.5-.23.77-.31 7.04-2.12 12.58-2.14 16.43-.9 3.36 1.07 5.67 3.08 7.02 5.66 1.26 2.43 1.68 5.48.92 9-.89 4.17-3.54 9.21-8.3 14.57-2.43 2.74-6.97 4.63-11.65 4.71-4.81.08-9.59-1.71-12.35-5.54-3.22-4.46-4.16-12.56 3.63-25.22a4.14 4.14 0 0 1 3.53-1.97m2.67 7.72c-2.27 3.93-3.5 7.17-3.88 9.84-.3 2.08-.06 3.66.75 4.78 1.21 1.67 3.41 2.15 5.51 2.12 2.21-.04 4.46-.65 5.61-1.94 3.03-3.4 5.03-6.58 6-9.4.66-1.93.87-3.59.22-4.86-.56-1.07-1.79-1.61-3.39-1.88-2.65-.45-6.11-.04-10.34 1.23-.16.04-.32.08-.48.11" style="fill:#0f1a20" transform="translate(-2275.96 -1592.57)"/><path d="M2838.12 2295.77c-1.48.01-2.9-.78-3.65-2.17l-.46-1.03-.25-1.23.14-1.44.57-1.27.91-.97 1.07-.62 1.31-.29 1.68.21c.54.17 1.5.64 2.71 1.51 1.7 1.22 4.41 3.47 7.64 6.26 10.08 8.73 25.53 23.06 29.71 25.15a4.145 4.145 0 0 1 1.85 5.55 4.14 4.14 0 0 1-5.55 1.85c-5.45-2.73-29.5-25.23-37.68-31.51" style="fill:#0f1a20" transform="translate(-2263.78 -1597.03)"/><path d="M2950.87 2314.46c-.07 3.04-2.07 5.44-4.47 5.36-2.39-.08-4.29-2.62-4.22-5.66.54-25.12 6.4-42.06 15.89-48.62 9.55-6.6 23.72-3.57 41.69 14.4 1.88 1.88 2.2 5.35.72 7.74-1.49 2.39-4.22 2.8-6.1.92-7.46-7.45-14.03-12.13-19.77-14.18-4.87-1.74-9.02-1.53-12.38.8-3.46 2.39-6 6.85-7.85 12.88-2.13 6.94-3.28 15.84-3.51 26.36" style="fill:#0f1a20" transform="matrix(.9518 0 0 .75018 -2117.27 -1007.68)"/><path d="M2847.03 2396.42c9.86 10.82 34.6 28.49 80.03 24.93 39.85-3.13 72.8-29.94 87.04-47.72 2.78-3.48 5.14-7.8 6.03-9.51-.35-1.68-.18-3.56.57-5.11 1.3-2.69 3.88-3.35 5.76-1.48l1 1.31.76 1.68.41 1.79.11 1.68c-.01 2.38-1.04 6.31-3.72 10.81-10.5 17.61-49.17 54.61-97.51 58.4-53.03 4.16-79.74-19.62-88.39-30.81-2.22-2.87-3.44-5.21-3.88-6.43l-.4-1.37-.2-1.59.3-2.63 1.01-2.16 1.54-1.36 1.85-.31 1.09.35.95.63c.83.69 2.48 2.57 4.72 6.24.48.79.79 1.71.93 2.66" style="fill:#0f1a20" transform="matrix(1 0 0 .69661 -2274.29 -890.491)"/><path d="M3033.15 2361.9c.06.03.13.06.2.09 3.56 1.65 21.07 9.07 30 18.55 4.56 4.84 6.96 10.58 6.68 16.01-.27 5.11-2.96 11.24-10.78 16.45-24.88 16.59-61.57.04-66.4-2.19-2.17-1-3.37-4.35-2.67-7.47s3.03-4.84 5.2-3.83c4.39 2.02 37.76 17.81 60.39 2.72 2.33-1.55 4.02-3.05 5.11-4.61.49-.7.86-1.27.9-1.96.03-.59-.23-1.13-.51-1.7-.66-1.35-1.66-2.62-2.84-3.88-8.2-8.7-24.35-15.27-27.62-16.79l-1.53-.93-1.18-1.58c-1.33-2.66-.9-6.37.95-8.28 1.24-1.28 2.8-1.43 4.1-.6" style="fill:#0f1a20" transform="matrix(1 0 0 .69661 -2274.29 -890.491)"/><path d="M3011.51 2393.57c-2.24-.68-3.66-3.83-3.19-7.04.47-3.2 2.67-5.25 4.9-4.57 9.28 2.82 8.01 5.31 17.58 8.04 2.24.64 3.69 3.77 3.25 6.98-.45 3.21-2.63 5.3-4.87 4.66-9.62-2.74-8.34-5.23-17.67-8.07" style="fill:#0f1a20" transform="matrix(1 0 0 .69661 -2274.29 -890.491)"/><path d="M2794.87 2289.54a4.15 4.15 0 0 1-4.54-3.7 4.14 4.14 0 0 1 3.7-4.53c44.16-4.52 86.67-31.43 102.57-55.29a4.14 4.14 0 0 1 5.74-1.14 4.125 4.125 0 0 1 1.14 5.73c-16.86 25.3-61.78 54.13-108.61 58.93" style="fill:#0f1a20" transform="translate(-2262.15 -1577.97)"/><path d="M3052.08 2296.78c1.62-1.16 3.89-1.02 5.34.43l.71.94.39.93.09 1.85-.41 1.23-.81 1.1-1.17.84-1.6.58c-6.88 1.76-48.83 4.02-77.61-6.45-60.23-21.9-79.75-42.95-84.58-49.34a4.136 4.136 0 0 1-3.82-6.21c.28-.47.53-.85.76-1.15l.86-.91.93-.63.86-.35 1.27-.19 1.23.16 1.59.76 1.19 1.08c3.22 3.65 13.24 23.81 82.54 49.01 26.36 9.58 64.5 7.94 72.24 6.32m-1.21 5.35" style="fill:#0f1a20" transform="translate(-2262.15 -1577.97)"/><path d="M2795.78 2279.91a4.136 4.136 0 0 1-3.65 4.57c-2.27.25-4.32-1.39-4.57-3.65-.77-6.91-5.19-25.1 3.47-46.51 8.55-21.15 29.96-45.74 81.44-65.27 20.46-7.76 89.75-25.23 136.83 8.83 20.31 14.7 36.66 38.9 43.12 77.66a4.147 4.147 0 0 1-3.4 4.76c-2.26.37-4.39-1.15-4.76-3.4-6.01-36.02-20.93-58.66-39.81-72.32-44.39-32.11-109.76-15.11-129.05-7.79-48.23 18.29-68.69 40.82-76.7 60.63-7.92 19.56-3.62 36.19-2.92 42.49M3035.2 2292.5a4.134 4.134 0 0 1-4.1-4.17 4.125 4.125 0 0 1 4.16-4.1c9.61.07 9.48.37 18.99-.52 2.28-.21 4.3 1.46 4.51 3.73a4.15 4.15 0 0 1-3.73 4.51c-9.93.93-9.8.62-19.83.55M3038.96 2269.51c.22-.02.8-.08 1.39-.17 1.99-.3 5.66-.93 13.01-2.1a4.135 4.135 0 1 1 1.3 8.17c-8.92 1.42-12.49 2.05-14.19 2.27-2.01.25-2.54.1-3.44-.12a4.14 4.14 0 0 1-3.01-5.01c.54-2.2 2.75-3.54 4.94-3.04" style="fill:#0f1a20" transform="translate(-2262.15 -1577.97)"/><path d="M2905.98 2162.04c-.01-.02-.02-.03-.03-.04-1.33-1.6-4.57-5.24-6.72-9.69-1.67-3.44-2.66-7.33-2.1-11.24.88-6.14 5.57-12.93 19.68-17.46 3.69-1.19 8.76-.53 13.51 1.86 6.76 3.41 12.72 10.15 13.11 18.02.28 5.58-2.08 11.96-9.52 18.16a4.136 4.136 0 0 1-5.29-6.36c4.48-3.73 6.49-7.34 6.56-10.75.1-4.97-3.77-9.04-7.94-11.34-2.77-1.53-5.73-2.42-7.9-1.72-9.48 3.05-13.43 6.64-14.02 10.77-.42 2.9.84 5.74 2.25 8.13 1.72 2.92 3.82 5.21 4.75 6.34l1.07 1.56.42 1.77-.19 1.34-.51 1.07a4.14 4.14 0 0 1-5.74 1.14c-.61-.4-1.08-.95-1.39-1.56m-.43-2.22c.05-.68.28-1.35.68-1.95-.35.52-.63 1.16-.68 1.95" style="fill:#0f1a20" transform="translate(-2262.15 -1577.97)"/><path d="M2909.38 2123.91a4.14 4.14 0 0 1-.77 5.45 4.136 4.136 0 0 1-5.83-.47c-.3-.36-3.05-5.35-5.33-12.88-3.23-10.7-5.69-26.63.47-40.62 7.18-16.34 24.31-35.99 37.58-50.39 8.27-8.97 15.01-15.7 16.17-18.01a4.137 4.137 0 0 1 5.55-1.86 4.145 4.145 0 0 1 1.85 5.55c-.98 1.95-5.32 6.83-11.39 13.35-12.96 13.93-34.15 36.41-42.19 54.69-5.29 12.02-2.89 25.71-.12 34.89 1.59 5.26 3.81 9.9 4.01 10.3" style="fill:#0f1a20" transform="translate(-2262.15 -1577.97)"/><path d="M2954.58 2012.92a4.135 4.135 0 0 1 4.32-7.05c1.37.81 2.16 1.69 3.01 3.19 1.68 2.98 4.29 10.32 31.3 35.4 9.01 8.38 8.11 18.68 3.11 28.28-6.44 12.38-19.99 23.39-21.72 25.05a4.15 4.15 0 0 1-5.85-.14 4.15 4.15 0 0 1 .14-5.85c1.59-1.52 14.18-11.5 20.09-22.87 3.24-6.23 4.45-12.97-1.4-18.4-24.98-23.2-30.09-32.15-32.19-36.12-.3-.58-.69-1.26-.81-1.49" style="fill:#0f1a20" transform="translate(-2262.15 -1577.97)"/><path d="M2978.95 2031.37c1.14-3.82 5.77-13.09 24.52-23.01 11.29-5.98 32.12-11.08 44.37-13.95 4.24-.99 8.36-2.03 8.67-2.1 2-.88 4.36-.03 5.35 1.94 1.02 2.04.19 4.53-1.85 5.55-.72.36-4.64 1.34-10.28 2.67-11.7 2.74-31.61 7.5-42.39 13.2-19.57 10.36-20.37 17.11-20.56 18.62l-.33 1.31-.47.87-.81.85-.85.53-1.43.37-1.24-.08-1.21-.47-1.28-1.08c-1.32-1.49-1.36-3.68-.21-5.22" style="fill:#0f1a20" transform="translate(-2262.15 -1577.97)"/><path d="M3061.86 1998.21c.02.08.05.17.08.25 2.69 7.77 19.09 51.07-8.07 91.81-10.44 15.66-34.93 55.33-116.02 59.6a4.145 4.145 0 0 1-4.35-3.92c-.12-2.28 1.64-4.23 3.91-4.34 76.48-4.03 99.73-41.16 109.58-55.93 24.99-37.49 9.6-77.37 7.13-84.52-.3-.88-.46-1.49-.5-1.77l.08-1.79.36-.9.51-.75.67-.63.87-.5 1.04-.28.92-.03 1.64.49c1.24.67 2.01 1.9 2.15 3.21m-3.21 4.46c-.94.22-1.96.1-2.87-.39 1.11.6 2.08.6 2.87.39" style="fill:#0f1a20" transform="translate(-2262.15 -1577.97)"/><path d="M2795.51 2289.47a4.134 4.134 0 0 1 3.54-4.65 4.13 4.13 0 0 1 4.65 3.54c.49 3.58-.64 11.19-1.81 21.13-2.59 21.82-5.19 55.98 15.16 80.81 13.56 16.53 37.29 28.68 77.59 30.6 7.39.35 73.72 7.36 107.29-48.57a4.133 4.133 0 0 1 7.09 4.25c-35.98 59.97-106.86 52.96-114.78 52.58-43.53-2.07-68.94-15.76-83.58-33.62-21.96-26.77-19.78-63.49-16.99-87.02 1.06-8.97 2.28-15.82 1.84-19.05" style="fill:#0f1a20" transform="translate(-2261.19 -1582.22)"/><path d="M3022.65 2329.77c.79-2.28 3.96-12.03 3.05-20.26a4.14 4.14 0 0 1 3.65-4.57 4.144 4.144 0 0 1 4.57 3.66c1.01 9.09-.98 17.77-2.79 22.56-1.12 2.96-2.49 4.73-3.16 5.24l-.85.52-.89.32-1.01.11-1.18-.17-1.42-.73-1.18-1.4a4.15 4.15 0 0 1 1.21-5.28m5.33.38c.3.29.56.63.77 1.01-.22-.41-.48-.74-.77-1.01M2793.28 2322.12a4.14 4.14 0 0 1 5.71 1.28c1.22 1.93.64 4.49-1.29 5.71-54.29 34.35-81.82 53.08-95.06 64.84-6.73 5.98-9.48 9.55-9.79 12.83-.18 1.89.58 3.53 1.4 5.38 8.58 19.29 35.39 44.07 51.6 59.52 5.08 4.84 9.17 8.8 11.47 11.44 1.35 1.55 2.18 2.82 2.54 3.66.9 2.1-.07 4.53-2.17 5.43s-4.53-.07-5.43-2.17c-.24-.56-1.06-1.39-2.16-2.57-2.3-2.47-5.78-5.82-9.96-9.81-16.87-16.06-44.52-42.06-53.45-62.14-1.44-3.24-2.38-6.2-2.08-9.5.3-3.22 1.78-6.9 5.79-11.55 9.78-11.33 36.71-30.49 102.88-72.35" style="fill:#0f1a20" transform="translate(-2262.15 -1577.97)"/><path d="M2804.19 2381.04a4.15 4.15 0 0 1 5.82.62 4.143 4.143 0 0 1-.63 5.82c-24.14 19.47-25.7 16.89-48.62 37.26a4.133 4.133 0 0 1-5.84-.34 4.14 4.14 0 0 1 .35-5.84c23.07-20.5 24.62-17.93 48.92-37.52" style="fill:#0f1a20" transform="translate(-2262.15 -1577.97)"/><path d="M2756.69 2426.79a4.14 4.14 0 0 1-.46-4.77 4.127 4.127 0 0 1 5.64-1.53l.99.79c.09.09.42.5.92 1.18 3.51 4.76 20.2 28.11 21.81 30.36 1.32 1.86.89 4.45-.97 5.77-1.85 1.33-4.44.9-5.77-.96-1.6-2.24-18.22-25.52-21.72-30.26-.18-.23-.36-.48-.44-.58" style="fill:#0f1a20" transform="translate(-2262.15 -1577.97)"/><path d="M2758.25 2494.37c-.32.66-1.53 3.19-2.28 5.42-2.37 7.09-4.89 18.05-5.8 26.83-.32 3.15-.45 6.01-.24 8.25.01.18.04.39.08.59 2.67-2.36 6.3-7.54 11.46-16.35a4.14 4.14 0 0 1 7.7 1.81c.12 1.8.8 11.92 4.18 20.86 1.95 5.17 4.68 10.07 9.23 11.89.02.01.03.01.05.02.13-.15.41-.46.57-.74.39-.63.74-1.46 1.08-2.52 1.44-4.5 2.33-12.3 2-25.61a4.15 4.15 0 0 1 2.84-4.03c1.73-.57 3.63.06 4.68 1.55.73 1.04 6.12 8.83 12.39 12.13 1.75.92 3.57 1.53 5.34.97 1.17-.37 2.25-1.26 3.3-2.66.41-.55.42-1.37.41-2.29-.02-1.67-.39-3.6-.95-5.67-3-11.03-11.45-25.33-12.6-27.28a4.15 4.15 0 0 1-.36-3.42 4.13 4.13 0 0 1 2.34-2.5c6.01-2.48 23.32-9.06 31.67-16.02 1.14-.95 2.09-1.89 2.74-2.84.32-.49.73-.89.51-1.34-2.59-5.56-9.37-8.98-16.56-11.45-12.05-4.14-25.63-5.13-28.01-5.3a4.14 4.14 0 0 1-3.82-4.43 4.134 4.134 0 0 1 4.43-3.82c2.56.19 17.14 1.28 30.09 5.73 9.48 3.25 17.94 8.43 21.37 15.77 2 4.3.06 9.43-5.46 14.03-7.37 6.15-21.23 12.14-29.45 15.53 3.23 5.84 8.73 16.47 11.09 25.17.94 3.46 1.39 6.65 1.19 9.26-.18 2.35-.88 4.32-2.01 5.83-2.3 3.06-4.84 4.76-7.41 5.58-3.84 1.22-7.89.48-11.7-1.54-2.82-1.48-5.52-3.68-7.84-5.94-.44 11.34-2.09 17.49-3.86 20.76-1.83 3.39-4.03 4.64-5.85 5.14-2.12.57-4.02.12-5.28-.39-6.56-2.62-11.09-9.21-13.9-16.64-1.47-3.88-2.48-7.96-3.18-11.61-3.22 4.66-5.81 7.62-7.84 9.27-2.31 1.88-4.34 2.45-5.88 2.42l-1.83-.31-1.64-.83-1.23-1.15-.85-1.26c-1.36-2.49-1.88-7.5-1.39-13.61.99-12.05 5.24-28.96 8.37-35.65.79-1.68 1.6-2.87 2.26-3.54l1.14-.91 1.23-.54c2.2-.6 4.48.69 5.09 2.89.48 1.73-.22 3.51-1.61 4.49" style="fill:#0f1a20" transform="translate(-2262.15 -1577.97)"/><path d="M2760.42 2547.55a4.14 4.14 0 0 1 4.64-3.56c2.26.29 3.86 2.37 3.56 4.63-.71 5.49-4.77 14.12-10.12 23.84-7.47 13.6-17.42 29.6-22.55 41.96-1.66 3.99-2.82 7.55-3.07 10.46-.14 1.53-.24 2.81.68 3.5 20.09 15.07 65.45 32.82 75.04 35.22 37.17 9.29 84.32 28.14 91.5 31.01 3.46 1.38 6.32 1.89 8.92 1.01 2.71-.92 5-3.24 7.41-6.8 9.06-13.37 18.02-42.43 37.23-91.81 5.17-13.29 22.3-64.83 22.5-65.57.61-2.2 2.88-3.5 5.08-2.9 2.21.6 3.51 2.87 2.9 5.08-.2.74-17.54 52.93-22.77 66.39-19.56 50.29-28.87 79.83-38.09 93.44-3.67 5.43-7.47 8.6-11.6 10-4.25 1.44-8.99 1.11-14.66-1.16-7.09-2.84-53.68-21.48-90.43-30.67-9.96-2.49-57.11-20.96-78-36.62-2.5-1.88-3.89-4.72-4.02-8.49-.15-3.95 1.24-9.24 3.74-15.26 5.23-12.6 15.33-28.92 22.95-42.77 4.71-8.58 8.53-16.08 9.16-20.93M2737.74 2466.98c-1.96 1.17-4.5.52-5.67-1.44a4.14 4.14 0 0 1 1.44-5.67c2.48-1.48 33.75-23.46 34.76-23.96a4.14 4.14 0 0 1 5.55 1.85c1.02 2.04.19 4.53-1.85 5.55-.99.49-31.79 22.21-34.23 23.67M3059.27 2322.12c-2.16-.72-3.34-3.07-2.61-5.23a4.134 4.134 0 0 1 5.23-2.62c14.78 4.93 68.74 36.66 69.04 36.88 5.83 4.21 7.6 9.99 6.15 16.92-1.19 5.67-4.81 12.3-10.2 19.38-13.98 18.37-40 40.41-60.29 57.77-12.94 11.07-23.52 20.07-26.51 24.84a4.144 4.144 0 0 1-5.71 1.3 4.14 4.14 0 0 1-1.3-5.7c2.43-3.87 9.36-10.46 18.63-18.54 20.46-17.82 52.61-43.66 68.6-64.68 4.49-5.91 7.69-11.34 8.68-16.07.73-3.46.02-6.41-2.89-8.51-.29-.21-52.51-30.97-66.82-35.74" style="fill:#0f1a20" transform="translate(-2262.15 -1577.97)"/><path d="M2983.24 2436.41c.06-.21.15-.41.24-.6 5.37-10.73 14.1-12.84 22.94-11.33 11.12 1.91 22.47 10.41 24.59 11.35 6.94 3.05 10.47 6.2 11.96 9.58 1.59 3.6 1.15 7.83-1.23 13.39-2.41 5.62-6.87 13.1-11.75 23.9-1.76 3.89-3.1 9.33-5.49 14.33-2.82 5.92-6.98 11.21-14 13.73-8.48 3.04-21.84 1.96-43.57-9.31-8.55-4.43-12.18-8.73-13.03-13.24-.6-3.17.1-6.68 2.09-10.86 3.83-8.02 12.91-19.4 22.4-38.79a4.13 4.13 0 0 1 4.85-2.15m2.81 5.23c-.06.19-.14.37-.23.56-9.47 19.35-18.54 30.71-22.36 38.71-1.07 2.25-1.75 4.06-1.43 5.76.2 1.06.86 1.99 1.89 2.97 1.54 1.47 3.79 2.9 6.82 4.47 18.54 9.61 29.73 11.46 36.96 8.86 4.77-1.71 7.42-5.48 9.34-9.5 2.35-4.95 3.68-10.33 5.41-14.18 4.85-10.73 9.29-18.17 11.69-23.75 1.22-2.86 2.08-4.94 1.26-6.79-.91-2.07-3.47-3.48-7.72-5.35-1.67-.74-9.36-6.58-17.97-9.54-6.87-2.35-14.59-2.84-18.83 5.65-.9 1.81-2.96 2.66-4.83 2.13" style="fill:#0f1a20" transform="translate(-2262.15 -1577.97)"/><path d="M2968.53 2450.85c0 .02.01.03.01.03s-.88-1.99-2.21-2.33c-.89-.23-1.88.36-3.27 1.59-1.56 1.37-3.26 3.48-5.17 6.51-2.44 3.88-4.39 7.03-5.5 9.71-.65 1.58-1.12 2.83-.63 3.95.32.73 1.01 1.31 1.96 1.93 1.53 1.02 3.62 1.94 6.34 2.9 2.15.76 3.28 3.13 2.52 5.28a4.13 4.13 0 0 1-5.27 2.52c-7.79-2.75-11.64-5.92-13.12-9.31-1.08-2.46-1.16-5.21-.17-8.43 1.06-3.42 3.51-7.62 6.87-12.96 6.97-11.09 13.06-12.55 16.88-11.84 4.56.85 7.41 5.22 8.2 6.86l.47 1.21.11 1.3-.35 1.36-.65 1.03-.81.72-.9.46-.96.22c-1.94.22-3.72-.95-4.35-2.71m-.17-.62a4.136 4.136 0 0 1 .28-2.45c-.14.3-.55 1.13-.28 2.45m.28-2.46a4.16 4.16 0 0 1 3.32-2.43c-1.35.15-2.59.8-3.32 2.43M2957.67 2493.76a4.14 4.14 0 0 1 5.85.06c1.59 1.63 1.57 4.26-.07 5.85-.72.71-.88 1.32-1.95 3.28-2 3.7-6.18 11.15-17.39 28.25 1.42 1.02 2.65 1.95 3.76 2.72.7.48 1.32.89 1.92 1.18.3.15.55.32.84.28.44-.07.82-.43 1.34-.9.7-.64 1.45-1.49 2.29-2.55 1.66-2.12 15.75-19.98 19.46-27.41a4.14 4.14 0 0 1 5.55-1.85 4.14 4.14 0 0 1 1.85 5.55c-3.9 7.8-18.61 26.6-20.36 28.81-2.86 3.65-5.26 5.42-7.35 6.14-2.57.89-4.99.57-7.7-.87-2.42-1.28-5.27-3.77-9.53-6.51a4.16 4.16 0 0 1-1.21-5.76c14.78-22.35 18.46-29.55 20.15-32.66 1.01-1.86 1.55-2.64 2.55-3.61" style="fill:#0f1a20" transform="translate(-2262.15 -1577.97)"/><path d="M2944.96 2541.19a4.13 4.13 0 0 1 5.72.13 4.134 4.134 0 0 1 0 5.84c-.42.43-1.46 1.18-2.94 2.02-4.16 2.39-12.79 6.5-13.83 6.99-1.45.7-3.17.48-4.42-.55a4.13 4.13 0 0 1-1.35-4.24c3.23-12.22 3.23-12.13 3.49-13.19.41-1.7.51-3.47.93-5.17a4.133 4.133 0 0 1 4.99-3.04c2.22.54 3.59 2.78 3.05 5-.42 1.7-.52 3.46-.93 5.16-.18.72-.23.92-1.22 4.6 1.25-.63 2.48-1.26 3.57-1.85 1.29-.69 2.76-1.59 2.94-1.7M3035.12 2407.17c-.5-.27-1.14-.59-1.84-.84-2.22-.79-5.36-1.53-9.76-2.16-7.7 14.13-7.77 14.56-13.66 24.55a4.14 4.14 0 0 1-5.67 1.46c-1.96-1.16-2.62-3.7-1.46-5.66 6.17-10.46 5.89-10.35 14.88-26.8a4.13 4.13 0 0 1 4.11-2.12c11.9 1.4 17.25 3.8 19.58 5.72.77.64 1.33 1.29 1.73 1.89l.61 1.13.39 1.2.15 1.44-.16 1.32-.44 1.31-.91 1.42c-13.18 15.82-14.93 19.17-15.87 21.06a4.14 4.14 0 0 1-5.55 1.85 4.14 4.14 0 0 1-1.85-5.55c.98-1.96 2.68-5.48 15.72-21.22M3071.29 2315.41l.17-.25c1.84-2.59 11.25-15.77 25.44-24.63 10.46-6.54 15.81-12.54 18.44-18.26 2.58-5.6 2.5-10.83 2.47-15.67-.05-8.39.15-15.81 7.71-22.58 4.58-4.1 7.76-7.56 9.63-10.62 1.33-2.18 1.96-3.99 1.59-5.67-.58-2.54-3.02-4.44-6.51-6.56-11.66-7.08-34.28-13.72-61.62-26.79-21.81-10.43-35.09-17.65-44.51-21.94-6.37-2.91-10.75-4.43-14.96-4.47-4.14-.04-8.06 1.38-13.55 3.94-2.06.97-4.53.07-5.49-2a4.14 4.14 0 0 1 2-5.5c6.91-3.22 11.91-4.77 17.12-4.71 5.13.04 10.54 1.67 18.31 5.21 9.45 4.31 22.77 11.55 44.65 22.01 27.67 13.23 50.54 20.01 62.34 27.18 5.91 3.59 9.32 7.51 10.29 11.81.64 2.86.31 5.98-1.34 9.47-1.94 4.11-5.92 8.98-12.43 14.8-5.42 4.85-4.99 10.36-4.96 16.37.04 5.94-.06 12.31-3.22 19.18-3.11 6.76-9.21 14.09-21.57 21.81-12.89 8.06-21.41 20.05-23.08 22.4-.34.49-.57.76-.63.82l-1.36 1c-2.09.93-4.54-.01-5.47-2.09-.65-1.46-.39-3.09.54-4.26" style="fill:#0f1a20" transform="translate(-2262.15 -1577.97)"/><path d="M3148.4 2217.48a4.137 4.137 0 0 1-5.83.5 4.126 4.126 0 0 1-.5-5.82c7.86-9.34 63.11-42.32 70.6-124.7 1.3-14.37-1.37-21.57-3.31-28.63-2.19-8-3.62-15.85 1.07-31.51 3.7-12.32 2.74-28.2-1.39-40.29-2.51-7.34-6.05-13.34-10.78-15.62-3.32-1.61-7.11-.79-11.33 2.7-5.51 4.56-11.37 13.16-17.56 26.92-1.42 3.14-15.46 34.09-16.57 50.75-.11 1.67-.09 3.17.14 4.43.15.82.18 1.56.76 1.84.47.23 1.09.1 1.88-.08 1.35-.31 2.57-1.45 3.85-2.92 1.78-2.04 3.49-4.75 5.12-7.85 8.23-15.56 14.37-40.23 15.21-43.61a4.147 4.147 0 0 1 5.02-3.01 4.14 4.14 0 0 1 3.01 5.01c-.88 3.53-7.34 29.25-15.92 45.48-2.4 4.52-4.98 8.34-7.61 10.91-2.22 2.16-4.53 3.52-6.82 4.05-4.27.98-7.28 0-9.38-1.91-2.58-2.35-3.92-6.89-3.51-12.89 1.17-17.57 15.78-50.28 17.28-53.6 6.91-15.35 13.68-24.8 19.83-29.89 7.44-6.17 14.33-6.62 20.2-3.78 6.31 3.05 11.66 10.6 15.01 20.39 4.64 13.61 5.64 31.49 1.49 45.35-4.02 13.39-2.89 20.1-1.02 26.94 2.13 7.79 5.01 15.73 3.57 31.57-7.75 85.21-64.39 119.62-72.51 129.27" style="fill:#0f1a20" transform="translate(-2262.15 -1577.97)"/><path d="M3150.46 2066.59a4.15 4.15 0 0 1 4.33-3.94c2.28.11 4.04 2.05 3.93 4.33-.63 13.38 4.76 60.84-46.36 77.88-2.16.73-4.5-.45-5.23-2.61-.72-2.17.45-4.51 2.62-5.23 45.88-15.3 40.14-58.42 40.71-70.43" style="fill:#0f1a20" transform="translate(-2262.15 -1577.97)"/><path d="M3112.59 2139.18a4.126 4.126 0 0 1-4.45 3.24c-2.27-.22-3.93-2.25-3.71-4.52.04-.35.36-1.54 1.11-3.42 2.03-5.02 7.47-17.79 12.8-34.93 9.86-31.76 19.48-78.72 5.55-118.96-4.58-13.24-12.28-18.5-19.53-16.27-4.34 1.33-8.15 5.2-10.65 10.87-4.28 9.69-4.62 24.34 2.53 42.22 1.47 3.67 3.27 5.9 5.47 6.49 1.85.5 3.72-.4 5.38-1.98 2.82-2.68 4.9-7.28 5.5-13.06 1.01-9.61-2.17-22.24-12.9-35.65a4.154 4.154 0 0 1 .65-5.82 4.14 4.14 0 0 1 5.81.65c21.3 26.63 15.96 51 6.65 59.87-4 3.81-8.78 5.18-13.24 3.98-4.11-1.11-8.26-4.55-11-11.41-11.61-29.02-5.01-50.72 5.6-59.73 6.15-5.22 13.7-6.64 20.79-3.69 6.46 2.68 12.76 9.26 16.76 20.82 14.53 41.99 4.82 90.99-5.48 124.12-6.07 19.57-12.3 33.52-13.57 36.98z" style="fill:#0f1a20" transform="translate(-2262.15 -1577.97)"/><path d="M3091.77 2037.26c-.54-2.21.82-4.45 3.04-4.99 2.21-.55 4.45.82 5 3.03.36 1.49.25 4.44-.68 8.46-1.71 7.46-5.99 19.66-12 33.13-7.69 17.23-18.2 36.57-29.64 50.7-8.06 9.98-16.67 17.36-25.02 20.14-2.17.72-4.51-.45-5.23-2.61-.72-2.17.45-4.51 2.61-5.23 7.15-2.39 14.31-8.96 21.21-17.5 11.02-13.62 21.11-32.27 28.52-48.87 5.73-12.86 9.86-24.49 11.49-31.61.51-2.23.9-3.82.7-4.65M2858.16 2536.99c.95-1.43 3.06-4.71 5.7-9.53 4.95-9.04 3.97-9.18 4.84-19.63.15-1.84 1.5-3.36 3.32-3.71a4.12 4.12 0 0 1 4.48 2.17c4.04 7.88 8.23 14.95 10.36 21.85 2.4 7.8 2.39 15.44-2.5 23.73-.72 1.22-6.43 10.43-11.87 13.15a4.14 4.14 0 0 1-5.55-1.85 4.14 4.14 0 0 1 1.85-5.55c4.01-2 7.91-9.06 8.45-9.96 4.29-7.27 3.22-13.85.38-20.77-.65-1.57-1.39-3.16-2.19-4.78-.7 2.39-1.93 4.97-4.32 9.32-3.45 6.32-5.46 9.55-6.7 11.13-1 1.28-1.82 1.89-2.4 2.22l-1.22.48-1.52.15-1.65-.42-1.26-.81c-1.73-1.48-1.94-4.1-.46-5.83a4.12 4.12 0 0 1 2.26-1.36" style="fill:#0f1a20" transform="translate(-2262.15 -1577.97)"/><path d="M2879.59 2638.9c.17-1.06.32-2.27.37-3.46.68-16.62-5.21-52.88-28.74-92.15a4.144 4.144 0 0 1 1.42-5.67c1.96-1.17 4.5-.54 5.68 1.42 28.34 47.31 31.91 90.62 29.14 103.45-.72 3.3-2.11 5.22-3.24 6.03l-1.52.75-1.87.2-1.4-.31-1.57-.9c-30.44-24.35-43.85-67.18-48.85-84.28-.82-2.81-1.68-5.6-1.85-6.14-.95-1.58-.75-3.68.62-5.05a4.146 4.146 0 0 1 5.85 0l.63.79.53 1.04c.42 1.04 1.13 3.5 2.16 7.04 4.55 15.57 16.19 53.76 42.64 77.24" style="fill:#0f1a20" transform="translate(-2262.15 -1577.97)"/></svg>