<svg xmlns="http://www.w3.org/2000/svg" xml:space="preserve" style="fill-rule:evenodd;clip-rule:evenodd;stroke-linejoin:round;stroke-miterlimit:2" viewBox="100 100 1000 1000"><path d="M2156.37 2285.54c2.02.77 3.9 1.58 5.66 2.4l13.09 7.82 8.34 7.65 7.26 10.17 4.92 12.45 1.56 13.32-2.3 14.64-8.28 16.61-13.1 13.55-4.37 2.72-1.46 1.48-12.56 7.74-15.81 4.16-3.52-.23-9.6 1.44-12.74-.56-13.55-3.17-13.71-6.57-12.5-10.34-8.82-11.46-6.41-13.89-2.73-15.41 1.28-14.78 4.76-13.77 9.62-14.77c8.56-10.23 20.76-18.11 24.74-21.18 18.2-14.07 44.39-10.71 58.45 7.49.63.81 1.22 1.64 1.78 2.49" style="fill:#3772ff" transform="translate(-1566.4 -1807.66)"/><path d="M1968.36 2027.07c11.92-6.39 26.61-6.78 39.21-.1 17.93 9.5 26.41 30.55 20.07 49.83-4.03 12.28-7.51 21.77-10.12 29.77-1.76 5.38-3.54 9.09-3.12 13.44.69 7.16 4.78 14.78 11.21 27.62.62 1.25 13.72 26.46 33.46 53.32 6.06-22.8 12.98-37.22 18.72-48 2.62-4.9 6.34-11.65 7.49-13.75 3.29-40.09 15.24-62.56 28.9-76.59 11.72-12.02 25.7-19.17 41.95-23.17 11.83-2.91 25.86-2.67 41-4.45l-3.55-12.23-.42-14.4 2.33-12.44 5.58-12.3 9.98-12.2c4.72-4.52 12.91-10.04 25.87-22.42 15.73-15.03 40.38-15.43 56.58-.91 16.21 14.52 18.52 39.06 5.3 56.35-3.01 3.93-6.2 8.43-7.96 10.94 7.49 8.08 16.46 18.39 26.78 31.29 37.54 46.92 46.12 90.47 47.18 129.28 8.36-12.92 16.15-27.04 22.34-41.47 21.83-50.94 39.29-66.31 54.19-73.37 9.4-4.45 19.34-6.07 32.29-6.9 1.97-1 4.09-2.02 5.58-2.61l13.33-3.45 10.81-.04 8.83 1.88 13.8 7.21 10.21 10.92 6.05 12.89 2.38 14.98c1.01 29.29-16.38 134.25-25.24 153.32-36.36 78.32-71.61 119.12-95.18 146.41-3.16 3.66-6.61 7.95-9.59 11.77 8.59 4.54 18.63 11.08 27.6 20.04 9.44 9.44 19.01 20.11 28.45 30.96-5.3-19.32-9.08-38.69-9.97-58.41-.83-18.16.63-29.98 2.39-36.65l5.01-12.54 8.89-11.28 14.34-8.86 18.34-2.7 9.03 1.57 10.09 4.25 9.39 7.02 7.43 8.71c7.36 10.46 17.96 35.79 25.77 66.97 9.27 37.01 15.07 82.38 11.55 116.56 3.45 12.01 6.45 24.21 8.71 36.67l.45 1.17c9.34 24.63 11.88 55.71-1.45 95.7-6.93 20.78-28.77 32.65-49.98 27.16a41.6 41.6 0 0 1-18.91-10.76c1.7 8.07 2.35 16.44 1.9 25.42-.99 20.02-8.27 44.46-27.01 78.19-7.64 13.74-6.55 13.63-14.73 27.27-3.41 5.68-6.42 9.91-8.94 12.97l-9.92 9.65-13.01 6.94-14.17 2.39-11.82-1.58-10.71-4.58-9.22-7.31-7.36-10.08-4.95-13.02c-1.14-4.62-2.04-11.04-2.64-18.55-.58-7.29-.95-16.31-2.15-24.97-.44-3.21-.21-6.51-1.57-8.69-28.98-46.36-25.94-48.29-62.97-88.93-12.09-13.27-24.34-33.68-36.77-53.08-3.64-5.7-9.2-12.88-13.72-18.49-2.25 3.11-4.61 6.66-6.52 10.12-42.67 77.59-58.08 126.53-74.4 156.47-9.8 17.99-20.35 30.97-33.29 40.76-18.35 13.87-42.33 22.12-81.75 23.5-2.37.08-25.62.77-43.69-2.09-6.75-1.07-12.97-2.63-18.08-4.51l-15.82-8.57-9.71-9.88-5.7-10.14-2.88-10.29-.46-10.67 2.26-11.43 6.22-12.67 6.99-8.58c2.75-2.81 6.25-5.91 10.72-9.18 38.11-27.85 39.23-30.5 70.79-172.56 2.41-10.8 5.85-20.71 10.11-29.74l-9.06-5.73-7.86-8.23-6.45-10.51c-8.48-17.44-12.84-59.89-14.56-70.25-4.44-26.62-15.65-27.62-27.53-38.05-10.78-9.46-22.61-22.03-34.79-43.35-32.79-57.39-45.66-56.8-79.88-118.81-4.59-8.33-8.98-19.09-10.44-22.77-6.54-12.15-6.75-27.08-.03-39.55-12.74-51.33-12.25-82.01-8.59-99.63 1-4.82 2.25-9.03 3.63-12.7l5.94-12.15 8.89-11.17 12.08-8.97 15.4-5.46 16-.34 15.4 4.84zm356.92 400.04-.86-20.03 4.53-19.05c1.92-5.07 4.46-10.18 7.68-15.41 15.96-25.95 60.79-58.53 107.16-158.4 1.37-2.95 2.95-8.65 4.59-16.02-29.71 52.68-71.89 96-92.2 105.94l-17.38 5.49-19.22-1.16-9.59-3.81-8.94-6.28-6.95-7.91-4.54-8.21c-8.01-18.7-9.75-40.13-8.99-64.17.97-31.22 7.6-69.98-23.02-112.76-20.9 8.26-41.15 10.72-59.66 12.35-6.15.55-12.02.98-17.49 1.84-2.54.39-5.05.23-6.95 1.61-1.12.82-1.03 2.56-1.65 4.5-1.82 5.72-2.91 12.84-3.56 21.66l-2.19 13.1c-1.39 5.27-3.36 10.34-5.91 15.55-7.59 15.47-25.04 34.68-30.71 115.56a41.7 41.7 0 0 1-23.09 34.43 41.65 41.65 0 0 1-35.73.58c11.17 12.89 21.57 17.33 29.58 25.36 10.89 10.91 20.88 24.56 27.45 50.5l12.74-3.73 23.1.15 20.65 6.51 18.07 11.61 14.96 16.48c6.26 9.1 14.96 10.44 23.09 9.67 10.92-1.03 21.49-4.74 30.33-7.92 21.48-7.72 39.2-11.17 47.13-10.03zm184.19 224.36c.09-1.87.31-3.76.67-5.65 2.77-14.82 3.27-28.99 2.19-42.68l-9.74-2.28c-12.03-4.06-26.89-13.89-42.24-28.91-4.44-4.35-9.06-9.23-13.81-14.46 3.6 6.29 6.32 10.81 7.28 12.41 21.37 35.62 40.68 56.83 52.32 75.87q1.74 2.865 3.33 5.7" style="fill:#3772ff" transform="translate(-1566.4 -1807.66)"/><path d="M2123.8 2254.38a295 295 0 0 1 12.35-37.02c-3.73-51.11 7.82-91.03 45.53-119.69 3-2.29 20.41-14.9 39.86-19l21.33-1.35 16.74 3.82 11.8 6.19 8.96 8.27 6.44 10.21 3.57 11.89.31 7.11 1.37.58 8.72 5.95 8.75 9.26 7.21 13.48 3.1 11.51c.78 4.39 1.26 9.36 1.34 14.8.36 23.22-8.54 60.38-15.29 85.12a41.64 41.64 0 0 1 14.1 16.43c1.47.32 2.93.72 4.37 1.2 2.62-3.88 5.4-8.1 8.39-12.83 7.47-11.82 20.02-18.69 33.16-19.35 9.74-15.99 20.41-32.94 32.01-50.69l7.37-9.15 2.69-2.19c11.8-15.98 33.76-21.67 52.13-12.48 20.57 10.28 28.92 35.33 18.64 55.9l-8.41 12.43-4.4 3.75c-61.34 94.16-94.65 164.49-101.75 179.5-6.47 13.67-19.46 22.25-33.58 23.65-3.08 6.86-5.51 10.71-6.84 12.54l-14.07 12.54-15.56 4.99-13.15-.91a41.55 41.55 0 0 1-29.5 6.67c-13.91-2.09-25.21-10.85-31.08-22.58a41.5 41.5 0 0 1-15.24 2.99c-13.81.09-26.12-6.55-33.78-16.88a41.5 41.5 0 0 1-11.92 9.32c-20.37 10.66-45.57 2.77-56.23-17.61-12.98-24.82-17.07-90.87-1.96-142.02 5.29-17.92 13.02-33.63 22.52-46.35m341.33-5.16-4.72 4.02c1.41-.99 2.99-2.1 4.72-4.02m-56.57-60.76 5.58-4.53c-1.84 1.24-3.69 2.43-5.58 4.53m-3.32 4.7c-.34.6-.68 1.24-1.03 1.92.33-.65.67-1.29 1.03-1.92" style="fill:#3772ff" transform="translate(-1566.4 -1807.66)"/><path d="M2256.7 2120.15c-1.84.53-3.69-.84-4.13-3.06-.45-2.22.69-4.46 2.53-4.99 12.28-3.54 131.55-21.83 164.61-25.25 1.88-.2 3.55 1.49 3.71 3.77.16 2.27-1.24 4.27-3.13 4.47-32.85 3.4-151.39 21.54-163.59 25.06" style="fill:#0f1a20" transform="matrix(1.20552 0 0 1 -2197.55 -1626.3)"/><path d="M2257.7 2114.14c.58 2.18-.44 4.5-2.27 5.19-1.82.68-3.77-.53-4.34-2.71-27.48-104.47 24.55-165.27 70.84-179.04 20.49-6.1 39.92-2.87 51.47 9.27 57.03 59.88 49.61 98.05 52.56 139.38.16 2.28-1.25 4.28-3.16 4.47-1.91.2-3.58-1.49-3.75-3.77-2.83-39.66 4.51-76.41-50.23-133.88-10.13-10.64-27.24-12.79-45.22-7.44-43.47 12.93-91.71 70.4-65.9 168.53" style="fill:#0f1a20" transform="matrix(1.19311 0 0 1 -2167.81 -1626.3)"/><path d="M2342.89 1965.86a4.15 4.15 0 0 1 4.61 1.87c1.37 2.29 5.02 5 9.38 7.89 11.49 7.63 28.05 15.56 30.49 16.74a4.13 4.13 0 0 1 2.05 5.26c-2.36 5.9-3.44 10.07-3.3 13.8.21 5.71 3.22 10.27 7.77 18.13 1.04 1.8.59 4.09-1.06 5.35a4.12 4.12 0 0 1-5.44-.35c-13.43-13.43-18-22.22-36.13-19.31a4.12 4.12 0 0 1-3.42-1.01 4.12 4.12 0 0 1-1.36-3.3c.49-8.76 4.43-18.26-9.66-39.59a4.14 4.14 0 0 1 1.18-5.73 4.125 4.125 0 0 1 4.89.25m9.31 16.58c4.3 10.71 3.67 17.86 3 24.02 10.09-.68 16.42 2.07 22.82 7.36-.08-.69-.14-1.38-.17-2.09-.14-3.83.61-8.07 2.53-13.57-6.16-3.04-18.74-9.45-28.07-15.64-.04-.03-.08-.05-.11-.08" style="fill:#0f1a20" transform="translate(-1733.91 -1626.3)"/><path d="M2290.01 1951.95a4.14 4.14 0 0 1 .18 4.85 4.133 4.133 0 0 1-5.73 1.14l-1.17-1-.75-1.08-.44-1.09c-.1-.36-.19-.78-.25-1.32-.25-2.06-.14-7.31-3.23-23.76-2.55-13.62-1.7-22.92 3.26-29.62 3.37-4.54 8.7-8.03 16.63-10.69 17.5-5.84 48.89-7.9 100.63-12.83 44.21-4.21 64 1.29 73.05 8.73 6.21 5.11 8.03 11.22 8.68 16.77.35 3.02.29 5.82.65 8.01 12.82 78.54 11.64 78.51 18.24 157.81.19 2.28-1.5 4.28-3.77 4.47-2.28.19-4.28-1.5-4.47-3.78-6.58-78.97-5.39-78.95-18.16-157.17-.31-1.89-.35-4.2-.55-6.72-.22-2.97-.67-6.33-2.67-9.45-2.62-4.06-7.79-7.52-17.66-9.69-11.14-2.46-27.75-3.11-52.55-.75-50.79 4.84-81.62 6.71-98.8 12.45-5.94 1.99-10.08 4.36-12.6 7.76-3.87 5.23-3.77 12.55-1.78 23.18 2.93 15.59 3.06 21.35 3.26 23.78" style="fill:#0f1a20" transform="translate(-1733.91 -1626.3)"/><path d="M2411.93 1795.46a4.132 4.132 0 1 1 8.24-.63c4.61 59.97 3.64 59.88 5.5 80.38a4.13 4.13 0 0 1-3.74 4.49 4.14 4.14 0 0 1-4.5-3.74c-1.86-20.53-.89-20.44-5.5-80.5" style="fill:#0f1a20" transform="translate(-1733.91 -1626.3)"/><path d="M2434.07 1778.74c.19-.38.45-.75.77-1.07a4.146 4.146 0 0 1 5.85 0l.73.94.4.89.19 1.75-.44 1.57-.56.89-.73.78c-1.6 1.43-8.3 4.76-21.31 16.11-21.04 18.33-30.76 24.19-34.54 26.77a4.14 4.14 0 0 1-1.74 3.14 4.133 4.133 0 0 1-5.76-.98l-.98-1.91-.21-1.11.07-1.28.38-1.17.53-.89 1.57-1.56c2.77-2.17 12.09-7.07 35.24-27.25 10.79-9.4 18.32-14.26 20.54-15.62M2442.76 1794.91a4.145 4.145 0 0 1 5.25-.54c1.9 1.26 2.41 3.83 1.15 5.73-.1.15-.81.95-2.23 2.09-7.46 6-43.45 33.66-56.86 47.88-1.56 1.66-4.18 1.74-5.85.18a4.15 4.15 0 0 1-.17-5.85c12.11-12.85 42.33-36.52 54.23-45.91 2.29-1.8 4.18-3.33 4.48-3.58M2249.18 2116.28a4.135 4.135 0 1 1 7.84 2.63c-.36 1.08-9.97 66.78-10.83 77.14a4.137 4.137 0 0 1-4.47 3.78 4.136 4.136 0 0 1-3.77-4.47c.88-10.62 10.86-77.98 11.23-79.08" style="fill:#0f1a20" transform="translate(-1733.91 -1626.3)"/><path d="M2223.84 2198.95c.58-.45 1.29-.74 2.07-.83 79.3-8.54 116.88-24.19 137.59-26.5 8.17-.92 14.07.15 18.89 3.63 4.58 3.31 8.27 9.01 11.75 18.2 2.03 5.36 23.37 51.58 26.15 82.77.64 7.21.3 13.68-1.31 18.81-1.87 5.98-5.4 10.31-10.84 12.48-27.05 10.82-82.71 38.35-132.36 31.73-8.73-1.16-18.16-9.66-26.49-22.99-17.89-28.63-32.19-79.41-30.88-113.53a4.15 4.15 0 0 1 4.29-3.98q.6.03 1.14.21m2.76 7.41c-.26 32.61 13.12 78.98 29.7 105.5 3.53 5.65 7.2 10.38 10.92 13.81 3.24 2.97 6.44 4.95 9.66 5.38 48.12 6.41 101.97-20.73 128.19-31.22 3.1-1.24 4.95-3.86 6.02-7.27 1.33-4.26 1.5-9.63.96-15.61-2.71-30.38-23.67-75.35-25.65-80.58-3.3-8.74-6.3-13.73-11.24-15.73-5.18-2.11-12.02-1.03-22.15 1.29-22.61 5.18-59.87 17.27-126.21 24.42-.07.01-.13.01-.2.01" style="fill:#0f1a20" transform="translate(-1733.91 -1626.3)"/><path d="M2484.19 2091.95c-2.54 1.52-5.75.57-7.18-2.11-1.44-2.69-.54-6.1 1.99-7.61 25.69-15.4 77.31-13.7 153.62-166.32 1.36-2.73 4.55-3.77 7.12-2.32 2.57 1.44 3.55 4.82 2.19 7.54-78.37 156.74-131.36 155.01-157.74 170.82" style="fill:#0f1a20" transform="matrix(.78492 0 0 .74067 -1200.17 -1085.05)"/><path d="M2641.13 1914.66c.91 2.1-.05 4.54-2.14 5.45s-4.53-.05-5.44-2.14c-7.86-18.01-8.25-35.43-5.22-46 1.56-5.45 4.13-9.24 6.9-11.09 3.68-2.46 7.03-3.02 10.02-2.48 2.92.53 5.59 2.18 7.95 4.7 5.33 5.69 9.13 16.51 12.45 23.14 1.02 2.05.19 4.53-1.85 5.55a4.14 4.14 0 0 1-5.55-1.85c-2.57-5.15-5.34-13.06-9.08-18.62-1.59-2.37-3.21-4.39-5.39-4.78-1.2-.21-2.48.24-3.97 1.22-2.24 1.5-3.61 5.44-4.42 10.62-1.47 9.39-.21 22.63 5.74 36.28" style="fill:#0f1a20" transform="translate(-1766.68 -1584.09)"/><path d="M2660.22 1870.08c-.98 2.65-3.94 4.01-6.61 3.04-2.68-.97-4.05-3.91-3.07-6.55 6-16.22 23.82-29.04 40.22-32.57 12.09-2.6 23.28-.13 29.47 8.13 5.68 7.56 10.3 21.85 11.49 41.23 2.66 42.9-10.91 111.81-63.58 185.3-52.5 73.25-91.24 98.15-114.45 111.27-9.26 5.23-15.95 8.33-19.8 12.18-2 2.01-5.27 2.02-7.29.04a5.067 5.067 0 0 1-.04-7.22c2.99-2.99 7.36-5.71 13.16-8.95 20.87-11.65 61.63-31.78 120-113.23 43.64-60.88 59.71-118.44 61.77-159.76 1.32-26.38-2.9-45.91-9.54-54.77-3.94-5.25-11.3-5.89-19-4.24-13.26 2.85-27.87 12.99-32.73 26.1" style="fill:#0f1a20" transform="matrix(.8017 0 0 .80967 -1232.18 -1209.75)"/><path d="M2245.51 2086.84c1.84-.56 3.88.23 4.84 1.99 1.31 2.43 1.9 4.09 2.03 4.94l.06 1.12-.19 1.11-.7 1.36-1.41 1.21-1.32.45-1.51-.01c-.71-.12-2.24-.74-4.08-2.49-10.64-10.09-57.06-72.28-97.16-152.48a4.14 4.14 0 0 1 1.85-5.55 4.14 4.14 0 0 1 5.55 1.85c34.61 69.23 73.91 124.91 90.24 144.42.61.73 1.22 1.43 1.8 2.08" style="fill:#0f1a20" transform="translate(-1733.91 -1626.3)"/><path d="M2125.57 1908.23c1.17-2.03 7.05-12.09 13.38-19.48 5.18-6.06 11.57-11.49 18.84-13.81 3.06-.99 9.62-.59 12.74 6.69 1.36 3.18 2.07 8.04.75 15.32-1.73 9.51-7 23.77-18.93 44.88a4.14 4.14 0 0 1-5.63 1.56 4.134 4.134 0 0 1-1.57-5.63c15.38-27.21 19.3-42 18.47-49.93-.42-4.09-2.15-5.39-3.31-5.02-7.42 2.38-13.53 8.97-18.22 15.25-5.22 6.99-8.75 13.78-10.23 15.66l-1.22 1.21-1.47.71-1.14.16-.93-.11-1.17-.44-.92-.7a4.146 4.146 0 0 1 .56-6.32m3.98-.42" style="fill:#0f1a20" transform="translate(-1733.91 -1626.3)"/><path d="M2138.49 1892.7c.91 2.09-.05 4.53-2.14 5.44s-4.53-.05-5.44-2.14c-5.28-12.1-12.75-20.71-20.6-25.2-4.74-2.72-9.59-3.9-14.02-3.23-5.38.81-10 4.42-13.07 10.8-3.53 7.33-5.02 18.01-3.56 32.29 5.83 57.42 34.19 133.73 69.3 191.34 23.08 37.86 48.95 67.7 73.39 78.18 2.1.89 3.07 3.33 2.18 5.43-.91 2.09-3.34 3.07-5.44 2.17-25.58-10.97-53.04-41.84-77.19-81.48-35.74-58.64-64.53-136.35-70.47-194.8-3.44-33.8 9.02-49.9 23.62-52.11 14.51-2.2 32.99 9.34 43.44 33.31M2270.93 2338.23a4.13 4.13 0 0 1 1.75-4.64 4.14 4.14 0 0 1 5.71 1.27l.58 1.3.24 1.51c.05 1.05-.14 2.93-.8 6.11-3.15 15.11-17.62 65.72-62.47 227.19a4.137 4.137 0 0 1-7.97-2.22c44.75-161.09 59.2-211.59 62.34-226.66.36-1.72.56-3.33.62-3.86" style="fill:#0f1a20" transform="translate(-1733.91 -1626.3)"/><path d="M2211.87 2567.9c2.25-.4 4.4 1.1 4.8 3.35.4 2.24-1.1 4.39-3.35 4.8-2.08.37-22.05 5.94-34.85 13.18-2.93 1.66-5.48 3.38-7.23 5.18-1 1.03-1.85 1.94-1.77 3 .1 1.12 1.19 1.96 2.87 3.04 2.87 1.86 7.32 3.61 13.66 5.3 4.29 1.14 75.55 1.83 102.48-2.66a4.147 4.147 0 0 1 4.76 3.4c.37 2.25-1.15 4.39-3.4 4.76-27.85 4.64-101.54 3.68-105.97 2.49-9.09-2.42-14.83-5.15-18.09-7.84-3.07-2.54-4.34-5.24-4.55-7.83-.21-2.61.69-5.29 2.72-7.87 2.2-2.81 5.92-5.61 10.45-8.17 13.75-7.78 35.23-13.73 37.47-14.13" style="fill:#0f1a20" transform="translate(-1733.91 -1626.3)"/><path d="M2294.31 2607.7c-1.78 1.43-4.39 1.15-5.81-.64a4.13 4.13 0 0 1 .64-5.81c.41-.33.69-.87 1.05-1.6.65-1.31 1.32-3.07 2.16-5.45 4.27-12.07 12.47-38.82 40.01-99.39 11.81-25.99 21.73-60.25 38.29-86.4 11.55-18.22 26.3-32.54 46.73-38.12 2.2-.6 4.48.7 5.08 2.9.6 2.21-.7 4.48-2.9 5.08-23.16 6.32-37.94 25.4-49.45 47.84-12.04 23.46-20.46 50.64-30.22 72.12-27.35 60.17-35.5 86.74-39.74 98.73-2.24 6.31-3.89 9.18-5.84 10.74" style="fill:#0f1a20" transform="translate(-1733.91 -1626.3)"/><path d="M2419.02 2375.48c-1.37-1.83-1-4.42.83-5.79 1.82-1.37 4.42-1 5.79.82 6.83 9.11 11.75 4.72 92.59 108.02 6.98 8.92 80.47 102.94 85.49 112.81a4.1 4.1 0 0 1 .19 3.29c-5.41 14.79-7.56 25.04-7.75 32.13-.11 4.01.4 6.84 1.38 8.78 1.5 3 4.25 3.01 5.14 2.61.94-.43 2.14-1.54 3.67-3.09 2.93-2.94 6.6-7.36 10.73-12.84 16.4-21.75 39.74-59.89 51.26-89.83 4.07-10.58 6.67-20.07 6.78-27.35.06-3.82-.49-6.93-2.34-8.92-10.43-11.17-11.14-10.1-20.23-22.21-96.83-129.11-99.87-126.65-127.51-168.1a4.14 4.14 0 0 1 1.15-5.74c1.9-1.26 4.47-.75 5.73 1.15 27.58 41.36 30.63 38.9 127.25 167.73 8.82 11.75 9.54 10.68 19.66 21.53 3.09 3.31 4.66 8.3 4.56 14.68-.12 8.03-2.84 18.54-7.33 30.2-11.77 30.61-35.61 69.6-52.38 91.84-7.72 10.24-14.26 16.97-17.57 18.48-2.67 1.21-11.48 2.52-15.97-6.43-3.13-6.26-4.02-19.37 5.35-45.64-9.56-15.25-77.14-101.5-83.78-109.98-80.93-103.42-85.85-99.04-92.69-108.15" style="fill:#0f1a20" transform="translate(-1733.91 -1626.3)"/><path d="M2525.72 2191.94a4.14 4.14 0 0 1 4.13-4.14c2.28 0 4.14 1.86 4.14 4.14 0 39.18-.84 96.24-1.78 110.3-.15 2.27-2.12 4-4.4 3.85-2.28-.16-4.01-2.13-3.85-4.4.93-13.99 1.76-70.76 1.76-109.75M2278.33 2356.8a4.14 4.14 0 0 1-5.12-2.83c-.63-2.19.63-4.48 2.82-5.12 1.23-.35 5.24-.64 11.12-.41 12.35.46 33.83 2.78 53.88 8.97 19.87 6.14 38.18 16.23 45.82 31.51 1.03 2.05.2 4.53-1.84 5.55a4.14 4.14 0 0 1-5.55-1.85c-6.76-13.51-23.31-21.88-40.87-27.31-19.26-5.94-39.89-8.16-51.75-8.61-4.5-.17-7.57-.18-8.51.1" style="fill:#0f1a20" transform="translate(-1733.91 -1626.3)"/><path d="M2429.2 2374.55a4.14 4.14 0 0 1-5.65 1.55 4.14 4.14 0 0 1-1.54-5.64c6.56-11.51 19-22.22 31.72-30.86 18.7-12.7 37.87-20.98 38.46-21.19 21.03-7.75 29.67-10.04 33.71-11.13 1.44-.39 1.87-.25 2.35-.73a4.13 4.13 0 0 1 5.85 0 4.13 4.13 0 0 1 0 5.85c-1.15 1.15-2 1.7-4.3 2.38-3.12.92-10.66 2.51-34.75 11.39-.57.21-18.83 8.16-36.67 20.27-11.65 7.91-23.18 17.57-29.18 28.11M2421.84 2294.2a4.125 4.125 0 0 1-4.06-4.2 4.134 4.134 0 0 1 4.2-4.07c8.08.14 7.79.22 100.97 3.95a4.12 4.12 0 0 1 3.96 4.29 4.134 4.134 0 0 1-4.29 3.97c-93.01-3.72-92.71-3.8-100.78-3.94M2716.28 2363.04c-5.68-14.76-12.53-29.39-20.44-42.86-23.32-39.73-22.89-42.07-42.96-82.22-11.94-23.87-9.78-47.27-4.22-59.45 3.06-6.7 7.51-10.2 11.23-10.54 11.15-1.01 22.82 5.19 33.66 16.6 15.06 15.82 28.84 41.7 38.15 69.19 9.3 27.5 14.11 56.57 11.51 78.7-1.82 15.4-7.3 27.53-16.8 34.16 10.6 29.42 16.57 58.8 16.98 80.48.3 16.03-2.7 28.08-8.36 33.74a4.134 4.134 0 0 1-5.84 0 4.13 4.13 0 0 1 0-5.85c1.64-1.65 2.85-4.1 3.78-7.13 1.64-5.35 2.31-12.39 2.15-20.6-.39-20.63-6.01-48.43-15.95-76.4-20.57 10.27-40.32 5.67-57.36-4.68-26.74-16.24-46.54-47-51.17-52.27-21.6-24.54-34.5-34.36-45.13-38.18-10.65-3.82-18.91-1.66-30.92-2.8a4.137 4.137 0 0 1-3.72-4.51c.21-2.28 2.23-3.94 4.51-3.73 12.8 1.22 21.57-.82 32.92 3.25 11.38 4.09 25.45 14.26 48.55 40.51 4.47 5.08 23.43 34.98 49.25 50.66 14.89 9.04 32.18 13.22 50.18 3.93m7.1-4.51c6.71-5.68 10.23-15.31 11.61-27.04 2.49-21.11-2.25-48.84-11.13-75.08-8.88-26.25-21.92-51.03-36.3-66.14-8.78-9.23-17.9-14.88-26.92-14.06-.54.05-.98.52-1.5 1.07-1.07 1.11-2.06 2.7-2.95 4.66-4.9 10.73-6.42 31.3 4.09 52.32 19.95 39.91 19.51 42.24 42.7 81.74 7.85 13.38 14.69 27.87 20.4 42.53M2258.6 2130.49l.41-1.27.65-1.16.81-.98c3.93-4.08 15.82-5.44 20.04 6.18 1.65 4.53 1.07 8.1-.46 10.75-2.25 3.92-7 6.08-11.82 6.06-5.51-.03-10.69-2.91-12.28-7.65-.96-2.86-.78-6.65 2.06-11.19.17-.28.37-.52.59-.74m5.13 7.98c-.09.48-.07.92.07 1.32.19.59.69.97 1.24 1.27.94.5 2.08.73 3.23.74 1.81 0 3.77-.44 4.62-1.91.54-.94.43-2.2-.15-3.8-.9-2.47-2.56-3.62-4.2-3.74-.35-.03-.78.05-1.16.15.78 1.58.49 3.54-.84 4.82-.79.76-1.8 1.14-2.81 1.15M2394.53 2106.62a4.14 4.14 0 0 1 4.46-.98c7.82 3 10.17 6.94 10.49 9.99.34 3.25-1.52 6.54-4.44 9.05-2.94 2.53-6.74 4.28-7.66 4.61l-1.56.29c-9.92 0-14.47-13.55-3.84-22.05.75-.61 1.65-.9 2.55-.91m2.75 7.25c-.04.04-.09.08-.13.11-2.15 1.72-3.16 3.88-2.93 5.7.09.68.42 1.27 1 1.52 1.09-.56 3.41-1.82 4.81-3.14.38-.36.72-.73.98-1.12.1-.15.26-.27.25-.44-.05-.4-.53-.63-1.1-1.05-.74-.54-1.69-1.06-2.88-1.58M2292.12 2138.1c.96-2.41 4.51-9.19 14.93-13.16 2.51-.96 5.6-.94 9.03-.17 3.88.87 8.33 2.71 12.66 4.1 2.41.78 4.78 1.41 6.94 1.48 2.18.07 4.06-.62 5.24-2.98 2.04-4.08 4.45-6.31 7.12-7.58 2.54-1.21 5.42-1.53 8.78-1.4 4.97.19 11.31 1.45 19.67-.35 2.23-.47 4.43.95 4.91 3.18a4.14 4.14 0 0 1-3.18 4.91c-9.23 1.98-16.23.74-21.72.53-1.87-.08-3.49-.07-4.91.6-1.29.61-2.28 1.84-3.27 3.81-3.73 7.46-10.17 8.55-17.58 6.93-4.95-1.09-10.37-3.51-15.13-4.82-2.15-.59-4.09-1.09-5.61-.51-9.2 3.5-10.08 8.58-10.81 10.02l-.62.99-.94.9-1.09.59-1.36.26-1.04-.08-1.18-.4a4.14 4.14 0 0 1-1.87-5.54c.26-.52.61-.96 1.03-1.31m3.62-.88a4.005 4.005 0 0 0 0 0M2179.35 2054.37c-.31-1.09-.87-3-1.51-4.7-6.36-16.97-26.18-57.39-34.81-72.23-1.57-2.7-2.73-4.44-4.33-5.11-1.41-.59-2.98-.09-5.16.69-6.8 2.44-17.14 8.47-35.64 15.37a4.135 4.135 0 1 1-2.89-7.75c18.56-6.92 28.92-12.97 35.75-15.41 4.65-1.66 8.11-1.79 11.13-.53 2.84 1.18 5.49 3.77 8.29 8.59 8.78 15.09 28.94 56.22 35.41 73.47 1.54 4.11 2.28 7.13 2.28 8.49l-.24 1.66-.94 1.66c-10.43 11.82-22.51 19.82-31.01 25.75-2.62 1.83-4.88 3.44-6.58 4.92-1.08.94-1.96 1.66-2.22 2.45a4.15 4.15 0 0 1-5.24 2.61 4.136 4.136 0 0 1-2.61-5.23c.83-2.48 3.59-5.46 7.99-8.73 7.72-5.72 20.94-13.52 32.33-25.97" style="fill:#0f1a20" transform="translate(-1733.91 -1626.3)"/><path d="M2129.45 1984.93c-.01.14-.01.29-.01.44l.09-.88.06-.21.14-.41c.29-.7.77-1.33 1.43-1.8q-.42.3-.75.63l.68-.91a4.116 4.116 0 0 1 5.84 0 4.13 4.13 0 0 1 .28 5.54l-.47.76-.78.72c-1.86 1.32-4.45.89-5.77-.97-.62-.88-.86-1.92-.74-2.91m0 0c.08-.98.42-1.66.96-2.23l-.51.7-.17.47c-.05.13-.1.27-.14.41l-.05.13-.01.08c-.03.15-.06.3-.08.44m7.82 2.31c.34-.49.31-.86.35-1.03.08-.36.08-.6.09-.77l-.37 1.69zM2143.12 1997.27a4.14 4.14 0 0 1 1.67 5.61c-1.08 2-3.59 2.75-5.6 1.67l-.64-.35a4.14 4.14 0 0 1-1.68-5.6 4.15 4.15 0 0 1 5.61-1.68zM2500.3 2088.54c.84.99 3.01 3.41 5.25 4.92 13.52 9.07 43.91 17.43 59.7-6.27 8.45-12.68 6.8-25.88 1.52-34-2.96-4.55-6.92-7.67-10.77-7.03-2.25.38-4.38-1.15-4.76-3.4a4.147 4.147 0 0 1 3.4-4.76c5.07-.84 10.64 1.3 15.25 5.92 9.26 9.32 14.79 29.04 2.24 47.86-18.86 28.31-55.04 19.38-71.18 8.54-4.76-3.19-7.8-6.68-8.79-9.39l-.47-2.1-.01-1.17.21-1.2.44-1.18.65-1.07 1.74-1.64c1.89-1.29 4.46-.8 5.75 1.09 1.04 1.52.92 3.5-.17 4.88M2492.96 2101.69a4.15 4.15 0 0 1 4.43 3.83c.16 2.27-1.55 4.26-3.83 4.42l-1.15.08a4.13 4.13 0 0 1-4.42-3.82c-.17-2.28 1.55-4.26 3.83-4.43zM2508.72 2121.59l1.77-.5c-.81.43-1.46.5-1.77.5m-3.77-5.92c.52-.45 1.35-.05 2.35 2.29l-1.01-4.01.26-.14 1.97 7.77s.08.01.2.01l-.46.14-.04-.16h-.01c.02.05.03.1.05.16-2.29 0-4.14-1.86-4.14-4.14 0-.93.31-1.79.83-1.92M2531.56 2128.49l4.08-4.78.06.37-4.08 4.79c-2.07 0-3.78-1.51-4.09-3.49l-.06-.37c-.03-.21-.05-.43-.05-.66 0-2.28 1.86-4.13 4.14 4.14M2544.81 2510.9c-1.16 1.66-3.39 2.27-5.25 1.34a4.14 4.14 0 0 1-1.85-5.55c.17-.33.83-1.27 2.13-2.52 3-2.89 10.69-9.6 18.54-16.79 5.78-5.29 11.67-10.84 15.78-15.27 2.31-2.49 4.06-4.48 4.58-5.77 1.08-2.7.73-5.82-.37-9.19-1.33-4.07-3.8-8.41-6.92-12.83-15.29-21.67-46.17-45.06-48.24-45.95-.9-.39-2.11-.03-3.54.41-2.31.7-4.95 1.99-7.75 3.6-13.91 8.01-31.33 23.94-31.97 24.79a4.134 4.134 0 0 1-5.79.83 4.134 4.134 0 0 1-.83-5.79c.7-.93 19.41-18.33 34.46-27 4.15-2.39 8.06-4.12 11.28-4.82 2.92-.64 5.44-.46 7.4.38 2.21.94 35.41 25.65 51.74 48.78 4.42 6.26 7.61 12.44 8.85 18.02.95 4.29.78 8.29-.64 11.84-.58 1.44-2.01 3.57-4.18 6.07-4.18 4.85-11.29 11.61-18.27 18-8.7 7.96-17.19 15.32-19.14 17.4z" style="fill:#0f1a20" transform="translate(-1733.91 -1626.3)"/><path d="M2549.6 2408.76c-.8 2.14-3.19 3.23-5.32 2.42-2.14-.8-3.23-3.19-2.42-5.32.75-2.01 3.4-5.25 7.3-8.94 7.63-7.21 20.24-17.11 27.48-24.36a4.146 4.146 0 0 1 5.85 0 4.13 4.13 0 0 1 0 5.85c-7.29 7.29-19.97 17.27-27.64 24.52-2.66 2.51-4.74 4.47-5.25 5.83M2511.45 2394.93c.89.76 1.46 1.89 1.46 3.15l-.13 1.05-.38.95-.62.84-.86.7-.93.42-.84.16-1.55-.15-1.28-.62c-.13-.1-.6-.5-1.26-1.23-3.74-4.15-22.53-26.53-24.31-28.65a4.146 4.146 0 0 1 .5-5.83 4.147 4.147 0 0 1 5.83.51c1.77 2.11 20.41 24.31 24.12 28.43.09.09.18.2.25.27m-2.27-.96c-.89-.1-1.61.1-2.19.38.54-.26 1.15-.4 1.78-.4.14 0 .27 0 .41.02m-2.78.73c-.94.63-1.76 1.65-1.76 3.38 0-1.4.7-2.63 1.76-3.38M2231.31 2230.37c.1.07.3.21.45.3.42.25.93.55 1.59.93 3.52 2.04 10.92 6.42 27.91 19.16 5.98 4.48 11.36 9.82 16.59 13.42 3.09 2.13 6.04 3.7 9.15 3.47s6.12-2.32 9.55-6.6c8.44-10.55 15.25-17.95 21.42-22.51 4.61-3.41 8.94-5.31 13.28-5.92 5.46-.77 11 .48 17.26 3.85 5.54 2.99 11.76 7.72 19.22 14.11 3.2 2.75 5.8 3.87 8.17 3.22 1.8-.49 3.31-1.88 4.75-3.68 1.86-2.33 3.49-5.34 5-8.67 3.66-8.06 6.53-17.91 9.34-25.4a4.145 4.145 0 0 1 5.33-2.42 4.15 4.15 0 0 1 2.42 5.33c-4.42 11.78-9.18 29.01-16.44 37.29-3.14 3.58-6.75 5.69-10.77 5.96-3.84.27-8.27-1.13-13.18-5.35-6.9-5.91-12.63-10.34-17.77-13.11-4.43-2.38-8.31-3.48-12.18-2.94-4 .56-7.89 2.81-12.3 6.62-5 4.31-10.5 10.54-17.09 18.78-5.37 6.71-10.53 9.32-15.39 9.69-4.85.36-9.64-1.58-14.46-4.91-5.32-3.66-10.79-9.06-16.86-13.62-19.3-14.47-25.87-17.86-28.59-19.49-2.07-1.23-2.78-2-3.57-3.38a4.15 4.15 0 0 1 1.56-5.64 4.15 4.15 0 0 1 5.61 1.51" style="fill:#0f1a20" transform="translate(-1733.91 -1626.3)"/></svg>