<svg xmlns="http://www.w3.org/2000/svg" xml:space="preserve" style="fill-rule:evenodd;clip-rule:evenodd;stroke-linejoin:round;stroke-miterlimit:2" viewBox="100 200 800 1000"><path d="M1291.76 1908.19c.15.51.4 1.31.62 2.03 4.74 15.11 22.46 69.14 39.37 115.88 18.59-7.6 39.41-14.04 42.83-15.05 39.38-11.67 82.34-34.91 116.06-37.93 19.52-1.76 37.16 1.53 52.48 10.17 15.19 8.56 28.89 22.56 38.37 45.75 3.02 7.36 27.25 66.98 34.42 93.27 4.28 15.69 10.85 17.53 15.27 22.81 6.21 7.42 12 16.39 16.2 31.31 6.52 23.22 7.55 42.79 6.72 60.49 2.29 1.13 4.51 2.49 6.62 4.07 12.32 9.24 46.33 29.19 63.99 48.61 6.79 7.47 24.42 18.34 33.17 30.05l7.69 12.98 1.81 5.53a41.8 41.8 0 0 1 5.8 21.94 41.67 41.67 0 0 1-16.58 32.55c-.48.36-.96.72-1.43 1.08l-2.82 3.5c-4.53 4.39-10.72 9.12-19.19 13.74-17.21 13.95-23.91 20.26-54.97 38.89-12.93 7.76-13.04 7.15-25.03 16.42a41.7 41.7 0 0 1-8.06 4.89c.08.96.15 1.86.22 2.7.41.09.82.2 1.22.33 2.8.95 5.62 1.94 8.5 3.1 16.39 6.59 35.72 16.9 57.69 55.35 34.87 61.02 32.57 115.98 32.1 159.94-.19 17.9-4.63 33.72 14.8 40.2l9.89 4.29 9.01 6.68 6.86 8.58 4.43 10.04 1.67 10.53-1.21 11.35-3.85 9.92-5 7.29-10.64 8.96-12.68 5.08c-7.08 1.7-38.14 2.47-100.72 1.57-30.17-.44-49.33-5.73-62.65-13.19l-12.61-8.82-10.31-10.92c-5.03-6.53-9.16-14.05-12.57-22.86-5.7-14.75-8.9-35.38-18.11-63.02-11.34-34-17.42-57.33-23.14-73.61-1.23-3.52-3.27-7.97-4.24-10.03-1.34-.42-3.44-1.06-5.05-1.41-15.18-3.3-24.37-6.42-30.88-9.08-.44.66-.84 1.31-1.19 1.91-6.03 10.35-10.92 22.18-12.19 28.76-15.4 80.12-6.64 80.37-8.56 134.05l-2.45 14.18-5.76 12.35-9.01 10.89-13.61 9.75c-20.78 11.3-55.23 12.23-57.85 11.96-21.52-2.27-39.09.15-47.59-1.38l-15.34-5.28-13.35-10.8-8.08-14.08-2.62-14.33 3.07-18.3 7.96-15.73c4.38-6.88 8.47-12.23 12.21-16.85 5.98-7.36 8.97-10.33 8.51-29.69-2-83.67 12.72-127.53 23.15-161.85 6.75-22.19 11.39-38.24-1.24-67.7-2.68-6.26-5.32-13.41-7.2-18.7-19.27-2.82-34.06-18.64-35.52-38.11-.1-1.35-.2-2.67-.28-3.94-5.53-1.85-11.4-4.04-15.39-6.15l-9.81-6.23-9.91-9.23-10.66-17.17c-6.58-15.82-9.69-41.52 10.62-82.14 23.8-47.6 19.3-49.54 47.71-95 .68-1.09 1.71-2.58 2.69-3.97-2-7.83-9.25-33.7-25.47-68.18-19.74-41.94-60.1-163.46-67.8-188.02l-2.37-8.55.15-16.96c4.86-22.47 27.06-36.77 49.53-31.91 15.95 3.45 27.79 15.64 31.58 30.45" style="fill:#ee486a" transform="translate(-898.43 -1616.81)"/><path d="M1125.24 2127.18c.05-.17.11-.35.19-.52.92-2.09 3.37-3.04 5.45-2.11l1.15.67.98 1 .69 1.45.11 1.72-.35 1.23-.69 1.13c-.36.44-1.02 1.05-2.06 1.74-5.15 3.44-25.04 14.23-40.32 60.06-26.66 80-11.66 136.3-11.66 154.92 0 2.29-1.85 4.14-4.13 4.14s-4.14-1.85-4.14-4.14c0-18.94-15.03-76.17 12.09-157.54 15.64-46.91 36.02-59.47 42.69-63.75" style="fill:#0f1a20" transform="translate(-630.16 -1228.69)"/><path d="M1071.52 2347.04a4.132 4.132 0 0 1 7.15.34l.41 1.27-.02 1.39-.64 1.61c-.19.29-.63.84-1.39 1.56-4.94 4.65-31.66 25.73-41.24 41.64-1.22 2.03-2.15 3.94-2.62 5.71-.31 1.18-.45 2.26-.11 3.19.52 1.43 2.09 2.18 4.53 2.79 3.88.97 9.48 1.1 17.22.31 5.07-.51 72.3-12.86 101.91-20.7 5.86-1.54 11.59-3.74 12-3.9a4.147 4.147 0 0 1 5.67.17 4.146 4.146 0 0 1 0 5.85c-.57.57-1.67 1.33-3.35 2.05-2.47 1.06-6.73 2.38-12.2 3.83-29.98 7.93-98.06 20.41-103.2 20.93-9.01.92-15.54.62-20.06-.52-3.77-.94-6.36-2.49-8.06-4.34-4.2-4.54-3.63-11.65 1.18-19.64 9.95-16.52 37.53-38.56 42.65-43.39.05-.05.11-.1.17-.15m-.66 2.23" style="fill:#0f1a20" transform="translate(-632.132 -1225.89)"/><path d="M1175.54 2382.79a4.134 4.134 0 0 1-3.4 4.76c-2.25.38-4.38-1.15-4.76-3.4-6.83-41.02-12.37-77.2 5.73-140.55 1.38-4.83 12.68-44.06 22.41-58.65 1.26-1.9 3.83-2.41 5.73-1.15a4.14 4.14 0 0 1 1.15 5.74c-9.33 14-20.01 51.7-21.34 56.33-17.63 61.71-12.18 96.96-5.52 136.92" style="fill:#0f1a20" transform="translate(-632.132 -1225.89)"/><path d="M1134.96 2122.77c.16.13.4.33.63.5 5.41 4.19 26.86 19.3 42.03 33.54 6.88 6.46 12.47 12.81 15.04 17.96 1.87 3.73 3.36 5.79 5.34 6.48 2.03.71 4.26.02 7.07-.74 7.94-2.16 19.06-6.15 37.1-2.96 5.65.99 9.58 1.27 12.95.36 3.24-.86 5.88-2.84 9.17-5.97 5.18-4.93 11.59-12.47 22.36-23.24 13.96-13.96 21.39-21.15 25.03-25.13.56-.62 1.1-1.29 1.5-1.8-.53-1.46-.2-3.15.97-4.32a4.146 4.146 0 0 1 5.85 0l1.11 1.37.69 1.63.11 1.97-.3 1.29-.48 1.07c-1.53 2.91-8.38 9.51-28.63 29.77-10.84 10.83-17.29 18.42-22.51 23.38-4.51 4.29-8.29 6.79-12.73 7.98-4.3 1.15-9.32 1.05-16.52-.22-19.92-3.51-30.63 2.69-38.16 3.85-2.88.44-5.42.29-7.8-.66-3.26-1.31-6.43-4.23-9.52-10.41-3.05-6.1-11.07-13.93-19.95-21.59-13.97-12.06-30.2-23.52-34.78-27.07-.87-.67-1.43-1.17-1.66-1.41l-.85-1.25-.37-1.68.11-.98.43-1.1c1.13-1.99 3.66-2.69 5.64-1.56.44.25.82.57 1.13.94m.88 1.82c.2.95.06 1.97-.45 2.88.41-.72.72-1.67.45-2.88" style="fill:#0f1a20" transform="translate(-632.132 -1225.89)"/><path d="M1114.03 2102.78c.27.74 2.6 7.11 5.18 11.11.96 1.48 1.99 2.85 3.06 3.86.5.47.91.96 1.41 1 3.41.29 11.85-1.59 22.48-4.22 26.44-6.54 65.47-18.17 77.98-19.51 4.99-.54 30.77-3.3 57.05-2.2 17.95.75 36.12 3.36 48.35 9.48a4.133 4.133 0 0 1 1.85 5.55 4.14 4.14 0 0 1-5.55 1.85c-11.37-5.69-28.3-7.92-45-8.61-25.71-1.08-50.94 1.63-55.82 2.15-12.34 1.32-50.81 12.87-76.87 19.32-11.88 2.94-21.35 4.75-25.15 4.44-1.75-.15-3.59-.92-5.36-2.32-1.86-1.48-3.73-3.75-5.38-6.31-3.03-4.71-5.41-10.42-6.14-13.12-.21-.75-.31-1.35-.35-1.77l.04-1.26a4.14 4.14 0 0 1 4.75-3.42c1.99.32 3.43 2.02 3.47 3.98" style="fill:#0f1a20" transform="translate(-632.132 -1225.89)"/><path d="M1108.16 2095.24c1.03-.47 3.41-1.59 5.77-2.84 20.96-11.08 81.61-43.85 194.63-37.4 9.37.54 38.1 10.56 38.13 10.59 1.82 1.08 3.11 2.75 3.83 4.95.76 2.28.87 5.29.37 8.68-1.56 10.76-9.15 26.07-10.12 28.01a4.14 4.14 0 0 1-5.55 1.85 4.145 4.145 0 0 1-1.85-5.55c.88-1.77 7.91-15.69 9.34-25.5.2-1.39.29-2.68.17-3.81-.06-.65.01-1.27-.44-1.54-.04-.02-25.92-8.94-34.35-9.42-124.57-7.12-184.2 34.4-196.58 39.6-.89.38-1.63.61-2.21.73l-1.17.13-1.03-.09-1.76-.71-.86-.73-.64-.91a4.14 4.14 0 0 1 1.7-5.6c.83-.45 1.75-.58 2.62-.44M1261.36 2188.69a4.13 4.13 0 0 1-2.36-5.35 4.15 4.15 0 0 1 5.36-2.36c15.94 6.2 33.16 27.4 46.73 55.88 19.85 41.68 32.25 98.82 23.16 144.3a4.136 4.136 0 1 1-8.11-1.63c8.77-43.85-3.37-98.92-22.52-139.12-12.44-26.11-27.64-46.03-42.26-51.72M1343.08 2119.43c-1.17-.25-2.23-1-2.82-2.15a4.143 4.143 0 0 1 1.8-5.57l1.6-.45 1.59.15c1.17.32 5.83 2.81 12.4 8.21 26.21 21.49 88.7 90.99 81.04 236.57a4.137 4.137 0 0 1-4.35 3.91 4.13 4.13 0 0 1-3.91-4.34c7.43-141.25-52.59-208.89-78.02-229.75-4.25-3.49-8.53-6.1-9.33-6.58" style="fill:#0f1a20" transform="translate(-632.132 -1225.89)"/><path d="M1492.37 2382.54c-.21-.21-.56-.57-.86-.79-.87-.63-1.98-1.2-3.27-1.76-11.85-5.14-36.46-8.01-47.94-11.29a4.145 4.145 0 0 1-2.85-5.11c.63-2.2 2.92-3.47 5.12-2.84 9.48 2.7 27.79 5.17 40.71 8.81 6.27 1.77 11.35 3.92 14.11 6.3 2.64 2.28 3.66 4.91 3.29 7.64-.4 2.9-2.98 6.7-9.75 10.46-1.47.82-3.88 1.57-7.1 2.12-6.26 1.06-16.14 1.55-28.04 1.57-38.93.09-99.92-4.67-125.03-8.85-2.25-.37-3.77-2.51-3.4-4.76a4.147 4.147 0 0 1 4.76-3.4c24.83 4.14 85.15 8.82 123.65 8.74 9.75-.02 18.08-.34 24.04-1.07 3.32-.41 5.79-.85 7.11-1.58 2.22-1.24 3.84-2.35 4.87-3.43.21-.23.44-.55.58-.76M1146.19 1929.14a4.14 4.14 0 0 1-2.48-3.22c-.63-4.39-4.11-17.72-4.5-19.25-.54-2.05.57-4.18 2.56-4.91 2.02-.76 63.47-14.35 90.51-15.29 5.35-.18 9.5.18 11.9 1.03 1.04.36 1.87.83 2.5 1.33l.81.76.71.99c.57.99 8.68 23.1 14.11 46.99 3.65 16.07 6.04 32.93 4.35 44.77-.24 1.67-1.41 3.75-4 5.62-3.47 2.5-10.23 5.3-18.78 7.8-19.03 5.56-47.13 9.92-65.03 7.95-9.03-.99-15.63-3.88-18.46-8.12-.31-.47-1.31-3.37-2.39-7.91-3.49-14.65-10.56-49.03-11.81-58.54m5.27-6.82.66.24c1.69.87 2.52 2.74 2.15 4.51.01.11.02.23.04.33.88 8.01 8.2 43.5 11.74 58.36.6 2.53 1.25 4.86 1.44 5.54.96 1.2 2.6 1.98 4.63 2.66 2.94.98 6.61 1.54 10.76 1.8 13.33.84 31.3-1.46 46.64-4.87 10.11-2.25 19.08-4.98 24.75-7.64 1.85-.88 3.75-2.25 4.28-2.64 1.42-11.01-.96-26.46-4.31-41.21-4.72-20.81-11.44-40.25-12.94-44.07-1.18-.18-5.11-.71-8.73-.59-22.79.79-70.76 10.78-84.33 13.88 1 3.96 2.45 9.85 3.22 13.7m-.48 7.98c-.87.16-1.8.05-2.65-.39.95.49 1.84.56 2.65.39" style="fill:#0f1a20" transform="translate(-632.132 -1225.89)"/><path d="M1183.45 1953.36c-.5-4.06-1.04-11.57-.41-22.92a4.13 4.13 0 0 1 8.04-1.1c5.84 17.14 7.45 22.01 12.63 31.34-.83-16.27-1.6-32.01-1.75-35.08a4.135 4.135 0 0 1 3.09-4.2c1.89-.5 3.87.4 4.74 2.15 6.28 12.54 7.08 13.21 13.24 23.4 6.96-3.42 7.67-4.7 17.64-6.12 1.84-.26 6.84-.58 7.33-.61 1.87-1.05 4.26-.5 5.47 1.31a4.14 4.14 0 0 1-1.15 5.74c-.85.57-2.2 1.05-3.84 1.28-2.1.29-4.96.23-6.64.47-10.18 1.45-9.53 2.88-18.73 7.04-1.92.86-4.18.15-5.26-1.66-3.12-5.24-5.09-8.39-6.73-11.08.51 10.26 1.16 23.06 1.74 33.91.1 1.9-1.11 3.62-2.93 4.18-1.82.55-3.78-.21-4.75-1.84-6.8-11.42-10.16-17.08-12.88-23.01.02.39.01.69-.01.92l-.59 1.78-1.07 1.23-1.36.74-1.74.26c-5.79 0-8.55.9-11.34 1.72-3.42 1.01-6.86 1.94-14.05 1.59a4.15 4.15 0 0 1-3.92-4.34 4.136 4.136 0 0 1 4.33-3.93c5.78.29 8.55-.44 11.29-1.25 2.64-.78 5.25-1.6 9.61-1.92M1126.31 2082.81c.15 2.28-1.57 4.26-3.84 4.41-2.28.16-4.26-1.56-4.41-3.83-.59-8.47-14.07-55.72-25.31-111.91-11.1-55.5-12.08-57.7-14.37-62.28a4.14 4.14 0 0 1 1.85-5.55 4.14 4.14 0 0 1 5.55 1.85c2.37 4.73 3.6 6.96 15.08 64.35 11.34 56.72 24.85 104.42 25.45 112.96M1334.79 2057.72a4.136 4.136 0 0 1-3.54 4.66 4.136 4.136 0 0 1-4.66-3.53c-.31-2.29-.17-3.87.34-7.36.99-6.8 3.38-22.3 5-74.33 2.53-80.83 2.49-80.74 2.96-87.75a4.125 4.125 0 0 1 4.4-3.85c2.28.15 4 2.12 3.85 4.4-.47 6.98-.42 6.9-2.94 87.46-1.64 52.69-4.08 68.38-5.09 75.27-.35 2.38-.54 3.46-.32 5.03" style="fill:#0f1a20" transform="translate(-632.132 -1225.89)"/><path d="M1340.11 1921.36a4.14 4.14 0 0 1-1.85-5.55 4.14 4.14 0 0 1 5.55-1.85c2.19 1.1 3.37 2.28 5.78 5.16 4.36 5.2 14.34 17.12 53.9 49.7a4.13 4.13 0 0 1 .66 5.7c-16.4 21.57-43.04 32.33-58.06 42.38-4.75 3.18-8.35 5.98-9.01 9.54-.38 1.99.45 4.07 2.3 6.53 6.75 9 23.24 14.6 36.45 15.62 4.28.33 8.22.17 11.36-.61 2.16-.53 3.93-1.19 4.67-2.58.76-1.43.03-3.23-1.49-5.69-2.41-3.89-6.97-8.59-14.17-14.27-1.79-1.41-2.09-4.01-.68-5.81a4.145 4.145 0 0 1 5.81-.68c10 7.9 15.4 14.34 17.61 19.27 2.03 4.53 1.74 8.2.21 11.07-2.31 4.33-8.39 7.21-16.6 7.66-9.52.52-22.03-1.84-32.48-6.44-7.27-3.21-13.52-7.53-17.31-12.58-3.61-4.81-4.54-9.12-3.81-13.02.99-5.27 5.49-10.17 12.54-14.88 13.72-9.18 37.69-18.73 53.59-37.43-37.76-31.29-47.5-42.99-51.83-48.17-1.37-1.63-1.89-2.45-3.14-3.07" style="fill:#0f1a20" transform="translate(-632.132 -1225.89)"/><path d="M1397.15 2032.48a4.13 4.13 0 0 1-5.85 0 4.146 4.146 0 0 1 0-5.85c10.3-10.29 50.25-32.33 72.04-55.15 4.75-4.97 8.6-9.96 10.94-14.89 2.04-4.3 2.9-8.52 1.84-12.55-.92-3.49-3.26-6.77-7.18-9.9-8.89-7.12-9.12-6.66-114-85.32a4.134 4.134 0 0 1-.83-5.79 4.134 4.134 0 0 1 5.79-.83c105.07 78.81 105.3 78.35 114.21 85.48 5.57 4.46 8.7 9.28 10.01 14.25 2.91 11.02-3.44 23.36-14.8 35.26-21.83 22.87-61.85 44.98-72.17 55.29" style="fill:#0f1a20" transform="translate(-632.132 -1225.89)"/><path d="M1054.78 1828.57c1.09-1.73 3.35-2.23 5.04-1.11s2.18 3.44 1.08 5.17c-66.645 105.52-65.234 112.96-65.73 119.9-.552 7.73 2.948 14.1 8.42 19.63 6.03 6.08 14.39 11.12 23.05 15.62 10.86 5.64 22.2 10.42 30.41 15.08 6.25 3.55 10.75 7.24 12.61 10.94.91 1.84.2 4.09-1.59 5.03s-3.99.22-4.91-1.62c-1.37-2.76-5-5.17-9.65-7.81-8.14-4.63-19.39-9.36-30.16-14.95-9.37-4.87-18.36-10.4-24.88-16.97-7.07-7.14-11.288-15.51-10.575-25.49.51-7.13-1.53-15.1 66.885-123.42" style="fill:#0f1a20" transform="matrix(1.13399 0 0 1.10695 -775.05 -1441.93)"/><path d="M1074.22 2010.08a4.14 4.14 0 0 1 5.56 1.83c1.03 2.03.21 4.52-1.83 5.56-12.07 6.1-18.34 10.74-21.28 14.31-.85 1.04-1.36 1.88-1.51 2.62-.03.13-.15.19-.11.22 25.23 11.21 46.73-9.5 49.75-12.52a4.146 4.146 0 0 1 5.85 0 4.146 4.146 0 0 1 0 5.85c-3.57 3.57-29.14 27.48-58.96 14.22l-1.56-.93c-.52-.39-1.05-.89-1.52-1.49l-.88-1.38-.63-1.7c-.43-1.74-.42-3.98.93-6.72 2.13-4.33 8.72-11.04 26.19-19.87M1100.66 1971.38a4.14 4.14 0 0 1 .25 5.84 4.13 4.13 0 0 1-5.84.26c-14.64-13.41-14.19-13.21-28.43-27.45a4.146 4.146 0 0 1 0-5.85 4.146 4.146 0 0 1 5.85 0c14.11 14.11 13.66 13.92 28.17 27.2" style="fill:#0f1a20" transform="translate(-632.132 -1225.89)"/><path d="M1073.6 1946.67c.4 2.25-1.11 4.4-3.35 4.79-2.25.4-4.4-1.1-4.79-3.35-.97-5.5.61-11.42 3.2-16.77 3.42-7.05 8.53-13.06 9.98-15.24a4.15 4.15 0 0 1 5.74-1.15 4.15 4.15 0 0 1 1.15 5.74c-1.37 2.05-6.22 7.64-9.42 14.26-1.83 3.76-3.19 7.86-2.51 11.72M1058.24 1816.35a4.14 4.14 0 0 1-5.68 1.38 4.143 4.143 0 0 1-1.38-5.69c3.91-6.41 8.16-10.27 12.74-12.29 5.45-2.41 11.5-2.33 18.47-.25 6.11 1.83 13.04 5.22 21.04 9.48 15.38 8.21 41.11 8.37 69.45 3.73 43.49-7.11 93.06-25.84 122.11-46.96 9.78-7.12 18.2-9.46 25.41-8.4 7.4 1.08 13.76 5.76 19.13 13.51 9.47 13.67 16.04 37.52 21.64 65.54.45 2.24-1 4.42-3.24 4.87a4.14 4.14 0 0 1-4.87-3.25c-5.33-26.66-11.32-49.44-20.33-62.45-3.86-5.58-8.21-9.26-13.54-10.04-5.52-.81-11.83 1.45-19.34 6.9-29.9 21.75-80.87 41.13-125.63 48.45-30.49 4.98-58.13 4.23-74.69-4.6-7.42-3.96-13.83-7.16-19.5-8.85-4.82-1.44-9-1.79-12.76-.12-3.31 1.46-6.21 4.42-9.03 9.04" style="fill:#0f1a20" transform="translate(-632.132 -1225.89)"/><path d="M1438.37 1926.71c.81 2.13-.26 4.53-2.39 5.34-2.13.82-4.52-.25-5.34-2.39-23.51-61.53 9.7-136.67 62.75-156.9 35.45-13.52 80.1-3.14 122.63 52.75 35.74 46.98 30.81 55.01 35.36 64.11 1.02 2.04.19 4.53-1.85 5.55a4.14 4.14 0 0 1-5.55-1.85c-4.46-8.91.44-16.81-34.54-62.8-39.4-51.78-80.26-62.55-113.1-50.03-49.39 18.83-79.85 88.94-57.97 146.22" style="fill:#0f1a20" transform="translate(-980.313 -1349.96)"/><path d="M1422.07 1925.33a4.123 4.123 0 0 1-3.59 4.61 4.13 4.13 0 0 1-4.61-3.59c-4.58-36.83-27.76-80.47-32.81-107.08-2.63-13.85-.18-23.59 8.76-27.57 109.38-48.61 149.58-70.34 183.52-73.33 6.11-.54 12.12 1.32 17.94 5.23 7.84 5.27 15.42 14.41 22.46 25.87 26.1 42.5 45.54 117.54 50.94 131.05.85 2.12-.18 4.53-2.3 5.38s-4.53-.19-5.38-2.3c-5.35-13.38-24.47-87.72-50.31-129.8-5.31-8.64-10.87-15.88-16.7-20.81-5.15-4.36-10.43-6.87-15.93-6.38-33.46 2.95-72.99 24.7-180.89 72.65-3.03 1.35-4.36 4.05-4.76 7.6-.34 3.1 0 6.75.78 10.86 5.07 26.74 28.28 70.61 32.88 107.61" style="fill:#0f1a20" transform="translate(-980.313 -1349.96)"/><path d="M1356.61 1721.89c-.77-2.15.36-4.51 2.51-5.27 2.16-.77 4.52.36 5.28 2.51 10.66 30.09 24.45 63.72 27.44 70.47a4.14 4.14 0 0 1-2.09 5.46c-2.09.92-4.54-.02-5.46-2.11-3.03-6.8-16.94-40.71-27.68-71.06M1321.89 1666.86c.89-.16 1.96-.38 2.82-.66 7.24-2.34 16.82-7.75 17.95-8.38 1.58-.89 3.56-.65 4.88.6a4.15 4.15 0 0 1 .86 4.83c-5.17 10.45-7.03 12.96-8.81 19.54 5.59-3.55 12.62-7.65 17.23-9.03 1.8-.55 3.37-.72 4.57-.6l2.23.63 1.5 1.07c1.82 1.82 2.56 3.41 2.79 4.97.22 1.5-.05 3.15-1.04 5.28-1.63 3.5-5.85 9.63-10.1 24.95a4.154 4.154 0 0 1-5.1 2.87 4.14 4.14 0 0 1-2.87-5.09c3.76-13.54 7.48-20.32 9.62-24.36.3-.56.61-1.21.85-1.73-.84.24-1.93.59-2.82.98-7.9 3.52-19.27 11.55-20.69 12.55-1.38.97-3.21 1-4.63.09a4.15 4.15 0 0 1-1.82-4.25c2.15-11.25 3.23-14.65 6-20.31-4.19 1.92-8.72 3.71-12.11 4.32-3.45.62-6.14-.04-7.65-1.28l-1.18-1.3-.75-1.59-.29-1.62.07-1.51c.22-1.67 1.74-12.83 5.26-20.66 1.89-4.19 4.47-7.44 7.36-8.84 2.06-.99 4.53-.13 5.52 1.93 1 2.05.13 4.53-1.92 5.52-.84.41-1.49 1.3-2.13 2.33-.96 1.55-1.76 3.45-2.46 5.44-1.69 4.89-2.68 10.33-3.14 13.31M1799.37 2043.54a4.14 4.14 0 0 1 4.02-3.16c2.28 0 4.14 1.86 4.14 4.14l-.21 1.47-.65 1.52c-.63 1.11-1.89 2.61-3.68 4.3-8.15 7.71-28.76 21.48-31.1 23.04a4.14 4.14 0 0 1-5.09-.39c-21.86-20.04-23.92-17.64-41.66-41.29-5.44-7.25-6.67-12.17-5.91-16.17.54-2.85 2.12-5.42 4.61-8.13 3.1-3.36 7.81-7.16 12.76-13.34a4.125 4.125 0 0 1 5.81-.65 4.125 4.125 0 0 1 .65 5.81c-3.9 4.88-7.64 8.35-10.65 11.27-2.59 2.52-4.7 4.29-5.08 6.71-.37 2.44 1.15 5.16 4.43 9.53 16.61 22.15 19.15 20.8 38.22 37.97 5.3-3.58 16.7-11.41 24.02-17.47 2.36-1.96 4.85-4.6 5.37-5.16" style="fill:#0f1a20" transform="translate(-980.313 -1349.96)"/><path d="M1731.84 2036.54c-.57-.05-1.14-.22-1.67-.51a4.145 4.145 0 0 1-1.6-5.63l1.06-1.33 1.41-.87 1.48-.3 1.29.14 1.16.45 1.31.94c.92.79 2.49 2.54 5.82 3.53 5.82 1.72 16.08 1.21 35.01-7.21 2.09-.92 4.54.02 5.46 2.1.93 2.09-.01 4.53-2.1 5.46-21.65 9.63-33.65 9.58-40.43 7.66-4.2-1.18-6.66-3.09-8.2-4.43m3.48-1.43c.17-.19.33-.41.48-.68-.14.25-.3.47-.48.68M1385.21 1979.55a4.14 4.14 0 0 1-7.59-2.28l.16-1.49.56-1.52.98-1.35 1.26-.98c1.59-.93 4.19-1.28 7.29-.32 7.85 2.44 20.47 13.56 18.08 27.88-2.4 14.43-7.98 22.94-14.46 27.89-15.21 11.62-36.42 3.49-39.64 2.21a4.14 4.14 0 0 1-2.3-5.38 4.13 4.13 0 0 1 5.37-2.3c1.59.63 8.51 3.42 16.49 3.47 4.97.03 10.4-1.01 15.07-4.57 5.22-3.99 9.37-11.04 11.31-22.68 1.38-8.3-4.97-14.85-10.1-17.63-.75-.4-1.75-.74-2.48-.95M1408.96 1969.15c.37 2.25-1.15 4.39-3.4 4.76a4.134 4.134 0 0 1-4.76-3.4l-.14-.83a4.13 4.13 0 0 1 3.41-4.75 4.124 4.124 0 0 1 4.75 3.4zM1409.55 1981.8c.68-.27 1.77.76 3.02 4.77l-.43-6.95.28-.03.51 8.24h.15l-.44.04v-.05h-.01c0 .02.01.03.01.05a4.14 4.14 0 0 1-4.13-4.14c0-1.05.39-2.01 1.04-1.93m3.53 6.03.35-.03c-.15.02-.26.03-.35.03M1414.19 2000.75c2.28-.1 4.21 1.68 4.3 3.96.1 2.28-1.68 4.21-3.96 4.3l-1 .04a4.135 4.135 0 0 1-4.3-3.96 4.135 4.135 0 0 1 3.96-4.3zM1401.13 2025.48a4.14 4.14 0 0 1 5.43-2.16c2.1.91 3.07 3.34 2.16 5.44l-.18.42c-.9 2.1-3.34 3.06-5.43 2.16-2.1-.9-3.07-3.34-2.17-5.44zM1467.39 1813.27c.04-.38.12-.74.23-1.07a4.13 4.13 0 0 1 5.23-2.61c1.82.6 2.94 2.37 2.81 4.2.46.56 1.93 2.28 3.32 3.44 7.55 6.23 22.29 14.01 29.9 16.82 1.3.48 2.28 1.58 2.6 2.93a4.16 4.16 0 0 1-1.02 3.78c-6.03 6.41-10.16 10.72-11.34 16.85-.79 4.06-.26 8.87 1.55 15.5.52 1.92-.39 3.93-2.18 4.8-1.78.88-3.93.36-5.12-1.23-7.79-10.39-12.26-15.23-17.7-17.71-3.6-1.63-7.57-2.22-13.07-2.92a4.134 4.134 0 0 1-3.23-5.85c.67-1.44 4.3-9.23 5.91-17.48.95-4.84 1.34-9.86-.56-13.53a4.145 4.145 0 0 1 1.76-5.58c.3-.15.6-.26.91-.34m6.82 10.7c.2 3.32-.13 6.86-.81 10.34-1.05 5.39-2.88 10.61-4.35 14.31 3.88.65 7.06 1.47 10.04 2.82 3.79 1.73 7.29 4.33 11.44 8.74.06-1.46.21-2.83.47-4.14 1.17-6.05 4.37-10.84 9.43-16.58-8.31-3.82-19.48-10.12-26.22-15.49M1473.7 1958.3c.53-1.18 1.6-2.1 2.97-2.37 4.23-.85 7.63-.03 10.24 1.56 3.95 2.42 6.13 6.8 6.45 10.89.25 3.3-.72 6.36-2.51 8.33-6.5 7.16-13.71 7.37-18.81 4.88-5.01-2.45-8.12-7.73-7.57-12.97.37-3.45 2.26-7.02 6.57-9.72.83-.51 1.77-.7 2.66-.6m3.31 5.79c-.32.73-.86 1.37-1.58 1.82-1.89 1.19-2.82 2.63-2.75 4.13.12 2.31 2.19 4.33 4.77 4.64 2.26.28 4.8-.81 7.28-3.53.68-.76.52-2.12.15-3.39-.67-2.37-2.89-4.46-6.59-3.72-.43.08-.86.1-1.28.05M1508.53 1975.05a4.136 4.136 0 0 1-3.76-4.48c.2-2.27 2.21-3.96 4.48-3.76 43.48 3.83 78.91-22.85 84.6-27.11 1.83-1.37 4.42-1 5.79.82 1.37 1.83 1 4.42-.83 5.79-6.06 4.55-43.91 32.83-90.28 28.74M1617.06 1920.44a4.13 4.13 0 0 1 3.05-4.16c9.98-2.73 17.71 6.15 16.42 14.88-.53 3.62-2.57 7.26-6.78 9.89-8.5 5.32-17.71 1.39-20.62-4.76-2.03-4.3-1.58-10.04 4.63-15.01a4.12 4.12 0 0 1 3.3-.84m3.41 3.9c.06 1.27-.48 2.54-1.55 3.4-2.18 1.75-3.02 3.51-2.31 5.02 1.22 2.57 5.2 3.5 8.76 1.28 1.77-1.11 2.75-2.56 2.98-4.08.48-3.28-2.32-6.73-6.07-5.7-.61.16-1.22.18-1.81.08M1735.81 2270.13c3.78-2.64 8.72-5.65 13.61-7.21 6.47-2.06 12.82-1.65 17.43 3.23 7.91 8.37 29.49 56.01 33.47 65.69.62 1.51.87 2.45.9 2.65l.02 1.01-.25 1.07-.94 1.45c-12.76 12.76-22.94 14.63-24.01 15.16a4.13 4.13 0 0 1-5.55-1.84 4.14 4.14 0 0 1 1.85-5.55c.92-.46 9.27-1.88 19.93-11.76-4.67-11.12-24.08-54.42-31.43-62.2-2.77-2.93-6.82-1.94-10.7-.38-6.24 2.52-12.17 7.3-14.63 9.2-1.25.98-2.16 1.44-2.41 1.53l-1.11.21-.9-.04-1.08-.33-.79-.47-1.14-1.34-.45-1.36.05-1.49.46-1.2c.2-.36 1.37-1.8 3.94-4.69a4.12 4.12 0 0 1 3.73-1.34" style="fill:#0f1a20" transform="translate(-980.313 -1349.96)"/><path d="m1752.92 2259.99-3.45 2.27-3.43 2.31-5.42-8.12c-.18-.27-.32-.55-.43-.85-2.28-6.06-12.01-23.59-13.12-25.6-1.1-2-.38-4.52 1.62-5.62 1.99-1.11 4.51-.38 5.62 1.61 1.13 2.05 10.79 19.55 13.44 26.25z" style="fill:#0f1a20" transform="translate(-980.313 -1349.96)"/><path d="M1728.69 2229.47c-.35.29-.76.52-1.21.69-2.14.78-4.52-.33-5.3-2.48l-1.8-4.94a4.148 4.148 0 0 1 2.8-5.41c1.74-.47 3.68-1 5.11-.96l2.17.43 1.61.99c1.3 1.15 2.8 3.7 1.07 8.89-.63 1.91-2.53 3.04-4.45 2.79" style="fill:#0f1a20" transform="translate(-980.313 -1349.96)"/></svg>