<svg width="150" height="150" viewBox="0 0 150 150" fill="none" xmlns="http://www.w3.org/2000/svg">
<path fill-rule="evenodd" clip-rule="evenodd" d="M75 150C76.9903 150 79.2933 149.867 81.8297 149.572L84.9427 149.13C85.278 149.083 85.6113 149.033 85.9433 148.98C87.3047 148.748 88.713 148.473 90.1587 148.151C134.458 137.73 147.767 78.9909 109.999 50.7792C133.37 65.266 143.26 91.2825 139.345 115.445C145.823 105.067 150 91.812 150 75C150 33.5786 116.421 0 75 0C33.5787 0 0 33.5786 0 75C0 116.421 33.5787 150 75 150ZM106.162 38.5901L101.166 17.3719L96.1707 38.5901L74.9997 43.5969L96.1707 48.6037L101.166 69.8218L106.162 48.6037L127.333 43.5969L106.162 38.5901ZM60.1663 125.612C77.9317 125.612 92.333 111.179 92.333 93.3742C92.333 75.5696 77.9317 61.1359 60.1663 61.1359C42.4013 61.1359 27.9997 75.5696 27.9997 93.3742C27.9997 111.179 42.4013 125.612 60.1663 125.612Z" fill="#F7F3E3"/>
</svg>
